<?xml version="1.0" encoding="utf-8"?>
<!-- Generator: Adobe Illustrator 16.0.0, SVG Export Plug-In . SVG Version: 6.00 Build 0)  -->
<!DOCTYPE svg PUBLIC "-//W3C//DTD SVG 1.1//EN" "http://www.w3.org/Graphics/SVG/1.1/DTD/svg11.dtd">
<svg version="1.1" id="图层_1" xmlns="http://www.w3.org/2000/svg" xmlns:xlink="http://www.w3.org/1999/xlink" x="0px" y="0px"
	 width="42px" height="56px" viewBox="-10.5 -13.688 42 56" enable-background="new -10.5 -13.688 42 56" xml:space="preserve">
<path fill="none" stroke="#FFFFFF" stroke-width="2" stroke-linecap="square" stroke-miterlimit="10" d="M-6.587,32.536
	c0,0.001,0,0.002,0,0.005c0,3.572,8.166,6.429,18.371,6.429c10.206,0,18.372-2.856,18.372-6.429c0-0.003,0-0.004,0-0.005"/>
<line fill="none" stroke="#FFFFFF" stroke-width="2" stroke-linecap="square" stroke-miterlimit="10" x1="-7.999" y1="-3.458" x2="30.156" y2="-3.458"/>
<line fill="none" stroke="#FFFFFF" stroke-width="2" stroke-linecap="square" stroke-miterlimit="10" x1="30.156" y1="-3.458" x2="30.156" y2="32.541"/>
<line fill="none" stroke="#FFFFFF" stroke-width="2" stroke-linecap="square" stroke-miterlimit="10" x1="30.156" y1="32.541" x2="-7.999" y2="32.541"/>
<line fill="none" stroke="#FFFFFF" stroke-width="2" stroke-linecap="square" stroke-miterlimit="10" x1="-7.999" y1="32.541" x2="-7.999" y2="-3.458"/>
<line fill="none" stroke="#040000" stroke-width="2" stroke-linecap="square" stroke-miterlimit="10" stroke-dasharray="0.7493,1.4986" x1="30.156" y1="-3.458" x2="30.156" y2="32.541"/>
<line fill="none" stroke="#040000" stroke-width="2" stroke-linecap="square" stroke-miterlimit="10" stroke-dasharray="0.7493,1.4986" x1="-7.999" y1="-3.458" x2="-7.999" y2="32.541"/>
<line fill="none" stroke="#040000" stroke-width="2" stroke-linecap="square" stroke-miterlimit="10" x1="-7.999" y1="-3.458" x2="30.156" y2="-3.458"/>
<path fill="none" stroke="#040000" stroke-width="2" stroke-linecap="square" stroke-miterlimit="10" d="M-6.587,32.536
	c0,0.001,0,0.002,0,0.005c0,3.572,8.166,6.429,18.371,6.429c10.206,0,18.372-2.856,18.372-6.429c0-0.003,0-0.004,0-0.005"/>
<path fill="none" stroke="#040000" stroke-width="2" stroke-linecap="square" stroke-miterlimit="10" d="M11.77,1.686
	c0.006,0,0.01,0,0.015,0c10.206,0,18.372-2.286,18.372-5.144c0-2.856-8.166-5.143-18.372-5.143c-0.005,0-0.009,0-0.015,0"/>
<path fill="none" stroke="#040000" stroke-width="2" stroke-linecap="square" stroke-miterlimit="10" d="M11.77-8.601
	C1.57-8.599-6.587-6.313-6.587-3.458c0,2.856,8.157,5.142,18.356,5.144"/>
</svg>
