<?xml version="1.0" encoding="utf-8"?>
<!-- Generator: Adobe Illustrator 16.0.0, SVG Export Plug-In . SVG Version: 6.00 Build 0)  -->
<!DOCTYPE svg PUBLIC "-//W3C//DTD SVG 1.1//EN" "http://www.w3.org/Graphics/SVG/1.1/DTD/svg11.dtd">
<svg version="1.1" id="图层_1" xmlns="http://www.w3.org/2000/svg" xmlns:xlink="http://www.w3.org/1999/xlink" x="0px" y="0px"
	 width="23.328px" height="20.48px" viewBox="0.117 0 23.328 20.48" enable-background="new 0.117 0 23.328 20.48"
	 xml:space="preserve">
<line fill="none" stroke="#FFFFFF" stroke-width="0.7535" stroke-linecap="square" stroke-miterlimit="10" x1="22.904" y1="19.992" x2="17.676" y2="14.717"/>
<line fill="none" stroke="#FFFFFF" stroke-width="0.7535" stroke-linecap="square" stroke-miterlimit="10" x1="3.485" y1="19.992" x2="22.904" y2="19.992"/>
<line fill="none" stroke="#FFFFFF" stroke-width="0.7535" stroke-linecap="square" stroke-miterlimit="10" x1="8.713" y1="14.717" x2="3.485" y2="19.992"/>
<line fill="none" stroke="#FFFFFF" stroke-width="0.7535" stroke-linecap="square" stroke-miterlimit="10" x1="17.676" y1="14.717" x2="8.713" y2="14.717"/>
<path fill="none" stroke="#040000" stroke-width="0.7535" stroke-linecap="square" stroke-miterlimit="10" d="M13.2,0.399
	c-0.002,0-0.004,0-0.006,0c-4.149,0-7.469,3.35-7.469,7.536c0,4.186,3.319,7.534,7.469,7.534c0.002,0,0.004,0,0.006,0"/>
<path fill="none" stroke="#040000" stroke-width="0.7535" stroke-linecap="square" stroke-miterlimit="10" d="M13.201,15.469
	c4.146-0.003,7.463-3.35,7.463-7.534c0-4.186-3.317-7.532-7.464-7.536"/>
<line fill="none" stroke="#040000" stroke-width="0.7535" stroke-linecap="square" stroke-miterlimit="10" x1="3.485" y1="19.992" x2="22.904" y2="19.992"/>
<line fill="none" stroke="#040000" stroke-width="0.7535" stroke-linecap="square" stroke-miterlimit="10" x1="3.485" y1="19.992" x2="8.713" y2="14.717"/>
<line fill="none" stroke="#040000" stroke-width="0.7535" stroke-linecap="square" stroke-miterlimit="10" x1="13.194" y1="7.935" x2="21.41" y2="7.935"/>
<line fill="none" stroke="#040000" stroke-width="0.7535" stroke-linecap="square" stroke-miterlimit="10" x1="0.497" y1="0.399" x2="13.194" y2="0.399"/>
<line fill="none" stroke="#040000" stroke-width="0.7535" stroke-linecap="square" stroke-miterlimit="10" x1="22.904" y1="19.992" x2="17.676" y2="14.717"/>
</svg>
