<?xml version="1.0" encoding="utf-8"?>
<!-- Generator: Adobe Illustrator 15.0.0, SVG Export Plug-In . SVG Version: 6.00 Build 0)  -->
<!DOCTYPE svg PUBLIC "-//W3C//DTD SVG 1.1//EN" "http://www.w3.org/Graphics/SVG/1.1/DTD/svg11.dtd">
<svg version="1.1" id="图层_1" xmlns="http://www.w3.org/2000/svg" xmlns:xlink="http://www.w3.org/1999/xlink" x="0px" y="0px"
	 width="27.667px" height="17.333px" viewBox="0 0 27.667 17.333" enable-background="new 0 0 27.667 17.333" xml:space="preserve">
<line fill="none" stroke="#FFFFFF" stroke-width="0.7508" stroke-linecap="square" stroke-miterlimit="10" x1="5.631" y1="0.432" x2="22.066" y2="0.432"/>
<line fill="none" stroke="#FFFFFF" stroke-width="0.7508" stroke-linecap="square" stroke-miterlimit="10" x1="22.066" y1="0.432" x2="22.066" y2="16.95"/>
<line fill="none" stroke="#FFFFFF" stroke-width="0.7508" stroke-linecap="square" stroke-miterlimit="10" x1="22.066" y1="16.95" x2="5.631" y2="16.95"/>
<line fill="none" stroke="#FFFFFF" stroke-width="0.7508" stroke-linecap="square" stroke-miterlimit="10" x1="5.631" y1="16.95" x2="5.631" y2="0.432"/>
<path fill="none" stroke="#040000" stroke-width="0.7508" stroke-linecap="square" stroke-miterlimit="10" d="M22.062,16.95
	c0.001,0,0.003,0,0.004,0c2.905,0,5.229-3.671,5.229-8.259c0-4.588-2.324-8.259-5.229-8.259c-0.001,0-0.003,0-0.004,0"/>
<line fill="none" stroke="#040000" stroke-width="0.7508" stroke-linecap="square" stroke-miterlimit="10" x1="5.631" y1="0.432" x2="22.066" y2="0.432"/>
<line fill="none" stroke="#040000" stroke-width="0.7508" stroke-linecap="square" stroke-miterlimit="10" x1="5.631" y1="16.95" x2="22.066" y2="16.95"/>
<path fill="none" stroke="#040000" stroke-width="0.7508" stroke-linecap="square" stroke-miterlimit="10" d="M5.627,0.432
	C2.724,0.436,0.402,4.105,0.402,8.691s2.322,8.255,5.225,8.259"/>
</svg>
