<?xml version="1.0" encoding="utf-8"?>
<!-- Generator: Adobe Illustrator 15.0.0, SVG Export Plug-In . SVG Version: 6.00 Build 0)  -->
<!DOCTYPE svg PUBLIC "-//W3C//DTD SVG 1.1//EN" "http://www.w3.org/Graphics/SVG/1.1/DTD/svg11.dtd">
<svg version="1.1" id="图层_1" xmlns="http://www.w3.org/2000/svg" xmlns:xlink="http://www.w3.org/1999/xlink" x="0px" y="0px"
	 width="17.234px" height="27.859px" viewBox="0 0 17.234 27.859" enable-background="new 0 0 17.234 27.859" xml:space="preserve">
<line fill="none" stroke="#FFFFFF" stroke-width="0.7532" stroke-linecap="square" stroke-miterlimit="10" x1="0.384" y1="5.667" x2="16.842" y2="5.667"/>
<line fill="none" stroke="#FFFFFF" stroke-width="0.7532" stroke-linecap="square" stroke-miterlimit="10" x1="16.842" y1="5.667" x2="16.842" y2="22.238"/>
<line fill="none" stroke="#FFFFFF" stroke-width="0.7532" stroke-linecap="square" stroke-miterlimit="10" x1="16.842" y1="22.238" x2="0.384" y2="22.238"/>
<line fill="none" stroke="#FFFFFF" stroke-width="0.7532" stroke-linecap="square" stroke-miterlimit="10" x1="0.384" y1="22.238" x2="0.384" y2="5.667"/>
<path fill="none" stroke="#040000" stroke-width="0.7532" stroke-linecap="square" stroke-miterlimit="10" d="M0.384,22.234
	c0,0.001,0,0.003,0,0.004c0,2.93,3.657,5.272,8.229,5.272c4.571,0,8.229-2.343,8.229-5.272c0-0.001,0-0.003,0-0.004"/>
<line fill="none" stroke="#040000" stroke-width="0.7532" stroke-linecap="square" stroke-miterlimit="10" x1="16.842" y1="5.667" x2="16.842" y2="22.238"/>
<line fill="none" stroke="#040000" stroke-width="0.7532" stroke-linecap="square" stroke-miterlimit="10" x1="0.384" y1="5.667" x2="0.384" y2="22.238"/>
<path fill="none" stroke="#040000" stroke-width="0.7532" stroke-linecap="square" stroke-miterlimit="10" d="M16.842,5.663
	c-0.004-2.927-3.66-5.268-8.229-5.268c-4.57,0-8.226,2.341-8.229,5.268"/>
</svg>
