<?xml version="1.0" encoding="utf-8"?>
<!-- Generator: Adobe Illustrator 15.0.0, SVG Export Plug-In . SVG Version: 6.00 Build 0)  -->
<!DOCTYPE svg PUBLIC "-//W3C//DTD SVG 1.1//EN" "http://www.w3.org/Graphics/SVG/1.1/DTD/svg11.dtd">
<svg version="1.1" id="图层_1" xmlns="http://www.w3.org/2000/svg" xmlns:xlink="http://www.w3.org/1999/xlink" x="0px" y="0px"
	 width="18.76px" height="27.88px" viewBox="0 0 18.76 27.88" enable-background="new 0 0 18.76 27.88" xml:space="preserve">
<line fill="none" stroke="#FFFFFF" stroke-width="0.7532" stroke-linecap="square" stroke-miterlimit="10" x1="1.113" y1="5.652" x2="18.293" y2="5.652"/>
<line fill="none" stroke="#FFFFFF" stroke-width="0.7532" stroke-linecap="square" stroke-miterlimit="10" x1="18.293" y1="5.652" x2="18.293" y2="22.223"/>
<line fill="none" stroke="#FFFFFF" stroke-width="0.7532" stroke-linecap="square" stroke-miterlimit="10" x1="18.293" y1="22.223" x2="1.113" y2="22.223"/>
<line fill="none" stroke="#FFFFFF" stroke-width="0.7532" stroke-linecap="square" stroke-miterlimit="10" x1="1.113" y1="22.223" x2="1.113" y2="5.652"/>
<path fill="none" stroke="#040000" stroke-width="0.7532" stroke-linecap="square" stroke-miterlimit="10" d="M0.366,22.219
	c0,0.001,0,0.003,0,0.004c0,2.93,3.984,5.272,8.964,5.272s8.964-2.343,8.964-5.272c0-0.001,0-0.003,0-0.004"/>
<line fill="none" stroke="#040000" stroke-width="0.7532" stroke-linecap="square" stroke-miterlimit="10" x1="18.293" y1="5.652" x2="18.293" y2="22.223"/>
<line fill="none" stroke="#040000" stroke-width="0.7532" stroke-linecap="square" stroke-miterlimit="10" x1="1.113" y1="5.652" x2="1.113" y2="22.223"/>
<path fill="none" stroke="#040000" stroke-width="0.7532" stroke-linecap="square" stroke-miterlimit="10" d="M18.293,5.647
	C18.29,2.72,14.307,0.379,9.33,0.379S0.37,2.72,0.366,5.647"/>
<line fill="none" stroke="#040000" stroke-width="0.7532" stroke-linecap="square" stroke-miterlimit="10" x1="1.113" y1="7.912" x2="18.293" y2="19.963"/>
<line fill="none" stroke="#040000" stroke-width="0.7532" stroke-linecap="square" stroke-miterlimit="10" x1="1.113" y1="19.963" x2="18.293" y2="7.912"/>
<line fill="none" stroke="#040000" stroke-width="0.7532" stroke-linecap="square" stroke-miterlimit="10" x1="1.113" y1="19.963" x2="18.293" y2="19.963"/>
<line fill="none" stroke="#040000" stroke-width="0.7532" stroke-linecap="square" stroke-miterlimit="10" x1="1.113" y1="7.912" x2="18.293" y2="7.912"/>
</svg>
