<?xml version="1.0" encoding="utf-8"?>
<!-- Generator: Adobe Illustrator 15.0.0, SVG Export Plug-In . SVG Version: 6.00 Build 0)  -->
<!DOCTYPE svg PUBLIC "-//W3C//DTD SVG 1.1//EN" "http://www.w3.org/Graphics/SVG/1.1/DTD/svg11.dtd">
<svg version="1.1" id="图层_1" xmlns="http://www.w3.org/2000/svg" xmlns:xlink="http://www.w3.org/1999/xlink" x="0px" y="0px"
	 width="27.672px" height="17.172px" viewBox="0 0 27.672 17.172" enable-background="new 0 0 27.672 17.172" xml:space="preserve">
<path fill="none" stroke="#040000" stroke-width="0.7464" stroke-linecap="square" stroke-miterlimit="10" d="M22.07,16.818
	c0.002,0,0.003,0,0.004,0c2.91,0,5.237-3.648,5.237-8.21c0-4.561-2.327-8.21-5.237-8.21c-0.001,0-0.002,0-0.004,0"/>
<path fill="none" stroke="#040000" stroke-width="0.7464" stroke-linecap="square" stroke-miterlimit="10" d="M5.612,0.398
	C2.705,0.402,0.38,4.049,0.38,8.608c0,4.559,2.325,8.206,5.232,8.21"/>
<line fill="none" stroke="#FFFFFF" stroke-width="0.7464" stroke-linecap="square" stroke-miterlimit="10" x1="5.617" y1="0.398" x2="22.074" y2="0.398"/>
<line fill="none" stroke="#FFFFFF" stroke-width="0.7464" stroke-linecap="square" stroke-miterlimit="10" x1="22.074" y1="0.398" x2="22.074" y2="16.818"/>
<line fill="none" stroke="#FFFFFF" stroke-width="0.7464" stroke-linecap="square" stroke-miterlimit="10" x1="22.074" y1="16.818" x2="5.617" y2="16.818"/>
<line fill="none" stroke="#FFFFFF" stroke-width="0.7464" stroke-linecap="square" stroke-miterlimit="10" x1="5.617" y1="16.818" x2="5.617" y2="0.398"/>
<line fill="none" stroke="#040000" stroke-width="0.7464" stroke-linecap="square" stroke-miterlimit="10" x1="5.617" y1="1.891" x2="22.074" y2="1.891"/>
<line fill="none" stroke="#040000" stroke-width="0.7464" stroke-linecap="square" stroke-miterlimit="10" x1="5.617" y1="0.398" x2="5.617" y2="16.818"/>
<line fill="none" stroke="#040000" stroke-width="0.7464" stroke-linecap="square" stroke-miterlimit="10" x1="22.074" y1="0.398" x2="22.074" y2="16.818"/>
<line fill="none" stroke="#040000" stroke-width="0.7464" stroke-linecap="square" stroke-miterlimit="10" x1="5.617" y1="3.384" x2="22.074" y2="3.384"/>
<line fill="none" stroke="#040000" stroke-width="0.7464" stroke-linecap="square" stroke-miterlimit="10" x1="5.617" y1="5.623" x2="22.074" y2="5.623"/>
<line fill="none" stroke="#040000" stroke-width="0.7464" stroke-linecap="square" stroke-miterlimit="10" x1="5.617" y1="7.115" x2="22.074" y2="7.115"/>
<line fill="none" stroke="#040000" stroke-width="0.7464" stroke-linecap="square" stroke-miterlimit="10" x1="5.617" y1="8.608" x2="22.074" y2="8.608"/>
<line fill="none" stroke="#040000" stroke-width="0.7464" stroke-linecap="square" stroke-miterlimit="10" x1="5.617" y1="10.101" x2="22.074" y2="10.101"/>
<line fill="none" stroke="#040000" stroke-width="0.7464" stroke-linecap="square" stroke-miterlimit="10" x1="5.617" y1="11.594" x2="22.074" y2="11.594"/>
<line fill="none" stroke="#040000" stroke-width="0.7464" stroke-linecap="square" stroke-miterlimit="10" x1="5.617" y1="13.833" x2="22.074" y2="13.833"/>
<line fill="none" stroke="#040000" stroke-width="0.7464" stroke-linecap="square" stroke-miterlimit="10" x1="5.617" y1="15.325" x2="22.074" y2="15.325"/>
<line fill="none" stroke="#040000" stroke-width="0.7464" stroke-linecap="square" stroke-miterlimit="10" x1="5.617" y1="0.398" x2="22.074" y2="0.398"/>
<line fill="none" stroke="#040000" stroke-width="0.7464" stroke-linecap="square" stroke-miterlimit="10" x1="5.617" y1="16.818" x2="22.074" y2="16.818"/>
</svg>
