<?xml version="1.0" encoding="utf-8"?>
<!-- Generator: Adobe Illustrator 15.0.0, SVG Export Plug-In . SVG Version: 6.00 Build 0)  -->
<!DOCTYPE svg PUBLIC "-//W3C//DTD SVG 1.1//EN" "http://www.w3.org/Graphics/SVG/1.1/DTD/svg11.dtd">
<svg version="1.1" id="图层_1" xmlns="http://www.w3.org/2000/svg" xmlns:xlink="http://www.w3.org/1999/xlink" x="0px" y="0px"
	 width="15.766px" height="45.703px" viewBox="0 0 15.766 45.703" enable-background="new 0 0 15.766 45.703" xml:space="preserve">
<line fill="none" stroke="#FFFFFF" stroke-width="0.7493" stroke-linecap="square" stroke-miterlimit="10" x1="0.373" y1="4.874" x2="15.403" y2="4.874"/>
<line fill="none" stroke="#FFFFFF" stroke-width="0.7493" stroke-linecap="square" stroke-miterlimit="10" x1="15.403" y1="4.874" x2="15.403" y2="40.09"/>
<line fill="none" stroke="#FFFFFF" stroke-width="0.7493" stroke-linecap="square" stroke-miterlimit="10" x1="15.403" y1="40.09" x2="0.373" y2="40.09"/>
<line fill="none" stroke="#FFFFFF" stroke-width="0.7493" stroke-linecap="square" stroke-miterlimit="10" x1="0.373" y1="40.09" x2="0.373" y2="4.874"/>
<path fill="none" stroke="#040000" stroke-width="0.7493" stroke-linecap="square" stroke-miterlimit="10" d="M0.373,40.085
	c0,0.002,0,0.003,0,0.005c0,2.913,3.34,5.244,7.516,5.244c4.175,0,7.515-2.331,7.515-5.244c0-0.002,0-0.003,0-0.005"/>
<line fill="none" stroke="#040000" stroke-width="0.7493" stroke-linecap="square" stroke-miterlimit="10" x1="0.373" y1="4.874" x2="0.373" y2="40.09"/>
<line fill="none" stroke="#040000" stroke-width="0.7493" stroke-linecap="square" stroke-miterlimit="10" x1="15.403" y1="4.874" x2="15.403" y2="40.09"/>
<path fill="none" stroke="#040000" stroke-width="0.7493" stroke-linecap="square" stroke-miterlimit="10" d="M15.403,4.871
	C15.4,2.375,12.062,0.378,7.889,0.378c-4.174,0-7.513,1.996-7.516,4.492"/>
</svg>
