<?xml version="1.0" encoding="utf-8"?>
<!-- Generator: Adobe Illustrator 15.0.0, SVG Export Plug-In . SVG Version: 6.00 Build 0)  -->
<!DOCTYPE svg PUBLIC "-//W3C//DTD SVG 1.1//EN" "http://www.w3.org/Graphics/SVG/1.1/DTD/svg11.dtd">
<svg version="1.1" id="图层_1" xmlns="http://www.w3.org/2000/svg" xmlns:xlink="http://www.w3.org/1999/xlink" x="0px" y="0px"
	 width="29.5px" height="56.511px" viewBox="0 0 29.5 56.511" enable-background="new 0 0 29.5 56.511" xml:space="preserve">
<line fill="none" stroke="#FFFFFF" stroke-width="0.7519" stroke-linecap="square" stroke-miterlimit="10" x1="0.396" y1="4.881" x2="15.45" y2="4.881"/>
<line fill="none" stroke="#FFFFFF" stroke-width="0.7519" stroke-linecap="square" stroke-miterlimit="10" x1="15.45" y1="4.881" x2="15.45" y2="40.22"/>
<line fill="none" stroke="#FFFFFF" stroke-width="0.7519" stroke-linecap="square" stroke-miterlimit="10" x1="15.45" y1="40.22" x2="0.396" y2="40.22"/>
<line fill="none" stroke="#FFFFFF" stroke-width="0.7519" stroke-linecap="square" stroke-miterlimit="10" x1="0.396" y1="40.22" x2="0.396" y2="4.881"/>
<path fill="none" stroke="#040000" stroke-width="0.7519" stroke-linecap="square" stroke-miterlimit="10" d="M0.396,40.216
	c0,0.001,0,0.002,0,0.004c0,2.506,3.345,4.511,7.527,4.511c4.183,0,7.527-2.005,7.527-4.511c0-0.002,0-0.003,0-0.004"/>
<path fill="none" stroke="#040000" stroke-width="0.7519" stroke-linecap="square" stroke-miterlimit="10" d="M22.974,56.009
	c0.002,0,0.003,0,0.004,0c2.928,0,5.27-2.339,5.27-5.263c0-2.925-2.342-5.264-5.27-5.264c-0.001,0-0.002,0-0.004,0"/>
<path fill="none" stroke="#040000" stroke-width="0.7519" stroke-linecap="square" stroke-miterlimit="10" d="M22.974,45.482
	c-2.925,0.003-5.265,2.341-5.265,5.264c0,2.922,2.34,5.261,5.265,5.263"/>
<line fill="none" stroke="#040000" stroke-width="0.7519" stroke-linecap="square" stroke-miterlimit="10" x1="7.923" y1="50.746" x2="17.709" y2="50.746"/>
<line fill="none" stroke="#040000" stroke-width="0.7519" stroke-linecap="square" stroke-miterlimit="10" x1="22.978" y1="45.482" x2="22.978" y2="40.22"/>
<line fill="none" stroke="#040000" stroke-width="0.7519" stroke-linecap="square" stroke-miterlimit="10" x1="15.45" y1="40.22" x2="22.978" y2="40.22"/>
<line fill="none" stroke="#040000" stroke-width="0.7519" stroke-linecap="square" stroke-miterlimit="10" x1="7.923" y1="45.482" x2="7.923" y2="50.746"/>
<line fill="none" stroke="#040000" stroke-width="0.7519" stroke-linecap="square" stroke-miterlimit="10" x1="17.709" y1="45.482" x2="29" y2="56.009"/>
<line fill="none" stroke="#040000" stroke-width="0.7519" stroke-linecap="square" stroke-miterlimit="10" x1="29" y1="54.505" x2="29" y2="56.009"/>
<line fill="none" stroke="#040000" stroke-width="0.7519" stroke-linecap="square" stroke-miterlimit="10" x1="27.494" y1="56.009" x2="29" y2="56.009"/>
<line fill="none" stroke="#040000" stroke-width="0.7519" stroke-linecap="square" stroke-miterlimit="10" x1="0.396" y1="4.881" x2="0.396" y2="40.22"/>
<line fill="none" stroke="#040000" stroke-width="0.7519" stroke-linecap="square" stroke-miterlimit="10" x1="15.45" y1="4.881" x2="15.45" y2="40.22"/>
<path fill="none" stroke="#040000" stroke-width="0.7519" stroke-linecap="square" stroke-miterlimit="10" d="M15.45,4.878
	C15.447,2.373,12.104,0.37,7.923,0.37c-4.18,0-7.523,2.003-7.527,4.508"/>
</svg>
