<?xml version="1.0" encoding="utf-8"?>
<!-- Generator: Adobe Illustrator 15.0.0, SVG Export Plug-In . SVG Version: 6.00 Build 0)  -->
<!DOCTYPE svg PUBLIC "-//W3C//DTD SVG 1.1//EN" "http://www.w3.org/Graphics/SVG/1.1/DTD/svg11.dtd">
<svg version="1.1" id="图层_1" xmlns="http://www.w3.org/2000/svg" xmlns:xlink="http://www.w3.org/1999/xlink" x="0px" y="0px"
	 width="31px" height="68.656px" viewBox="0 0 31 68.656" enable-background="new 0 0 31 68.656" xml:space="preserve">
<g>
	
		<line fill="none" stroke="#FFFFFF" stroke-width="0.7509" stroke-linecap="square" stroke-miterlimit="10" x1="1.112" y1="16.313" x2="16.919" y2="16.313"/>
	
		<line fill="none" stroke="#FFFFFF" stroke-width="0.7509" stroke-linecap="square" stroke-miterlimit="10" x1="16.919" y1="16.313" x2="16.919" y2="52.356"/>
	
		<line fill="none" stroke="#FFFFFF" stroke-width="0.7509" stroke-linecap="square" stroke-miterlimit="10" x1="16.919" y1="52.356" x2="1.112" y2="52.356"/>
	
		<line fill="none" stroke="#FFFFFF" stroke-width="0.7509" stroke-linecap="square" stroke-miterlimit="10" x1="1.112" y1="52.356" x2="1.112" y2="16.313"/>
	<path fill="none" stroke="#040000" stroke-width="0.7509" stroke-linecap="square" stroke-miterlimit="10" d="M0.359,52.352
		c0,0.002,0,0.003,0,0.005c0,2.92,3.68,5.256,8.28,5.256c4.6,0,8.279-2.336,8.279-5.256c0-0.002,0-0.003,0-0.005"/>
	<path fill="none" stroke="#040000" stroke-width="0.7509" stroke-linecap="square" stroke-miterlimit="10" d="M24.443,11.807
		c0.001,0,0.002,0,0.003,0c2.51,0,4.517-2.336,4.517-5.256s-2.007-5.256-4.517-5.256c-0.001,0-0.002,0-0.003,0"/>
	<path fill="none" stroke="#040000" stroke-width="0.7509" stroke-linecap="square" stroke-miterlimit="10" d="M24.443,1.294
		c-2.508,0.002-4.513,2.337-4.513,5.256s2.005,5.254,4.513,5.256"/>
	
		<line fill="none" stroke="#040000" stroke-width="0.7509" stroke-linecap="square" stroke-miterlimit="10" x1="8.64" y1="6.551" x2="19.178" y2="6.551"/>
	
		<line fill="none" stroke="#040000" stroke-width="0.7509" stroke-linecap="square" stroke-miterlimit="10" x1="24.446" y1="11.807" x2="24.446" y2="16.313"/>
	
		<line fill="none" stroke="#040000" stroke-width="0.7509" stroke-linecap="square" stroke-miterlimit="10" x1="16.919" y1="16.313" x2="24.446" y2="16.313"/>
	<path fill="none" stroke="#040000" stroke-width="0.7509" stroke-linecap="square" stroke-miterlimit="10" d="M24.443,67.374
		c0.001,0,0.002,0,0.003,0c2.51,0,4.517-2.336,4.517-5.256s-2.007-5.257-4.517-5.257c-0.001,0-0.002,0-0.003,0"/>
	<path fill="none" stroke="#040000" stroke-width="0.7509" stroke-linecap="square" stroke-miterlimit="10" d="M24.443,56.861
		c-2.508,0.003-4.513,2.338-4.513,5.257s2.005,5.254,4.513,5.256"/>
	
		<line fill="none" stroke="#040000" stroke-width="0.7509" stroke-linecap="square" stroke-miterlimit="10" x1="8.64" y1="62.118" x2="19.178" y2="62.118"/>
	
		<line fill="none" stroke="#040000" stroke-width="0.7509" stroke-linecap="square" stroke-miterlimit="10" x1="24.446" y1="56.861" x2="24.446" y2="52.356"/>
	
		<line fill="none" stroke="#040000" stroke-width="0.7509" stroke-linecap="square" stroke-miterlimit="10" x1="16.919" y1="52.356" x2="24.446" y2="52.356"/>
	
		<line fill="none" stroke="#040000" stroke-width="0.7509" stroke-linecap="square" stroke-miterlimit="10" x1="8.64" y1="6.551" x2="8.64" y2="11.807"/>
	
		<line fill="none" stroke="#040000" stroke-width="0.7509" stroke-linecap="square" stroke-miterlimit="10" x1="8.64" y1="56.861" x2="8.64" y2="62.118"/>
	
		<line fill="none" stroke="#040000" stroke-width="0.7509" stroke-linecap="square" stroke-miterlimit="10" x1="19.178" y1="11.807" x2="30.469" y2="0.543"/>
	
		<line fill="none" stroke="#040000" stroke-width="0.7509" stroke-linecap="square" stroke-miterlimit="10" x1="19.178" y1="56.861" x2="30.469" y2="68.125"/>
	
		<line fill="none" stroke="#040000" stroke-width="0.7509" stroke-linecap="square" stroke-miterlimit="10" x1="30.469" y1="2.045" x2="30.469" y2="0.543"/>
	
		<line fill="none" stroke="#040000" stroke-width="0.7509" stroke-linecap="square" stroke-miterlimit="10" x1="28.21" y1="0.543" x2="30.469" y2="0.543"/>
	
		<line fill="none" stroke="#040000" stroke-width="0.7509" stroke-linecap="square" stroke-miterlimit="10" x1="30.469" y1="66.623" x2="30.469" y2="68.125"/>
	
		<line fill="none" stroke="#040000" stroke-width="0.7509" stroke-linecap="square" stroke-miterlimit="10" x1="28.21" y1="68.125" x2="30.469" y2="68.125"/>
	
		<line fill="none" stroke="#040000" stroke-width="0.7509" stroke-linecap="square" stroke-miterlimit="10" x1="1.112" y1="16.313" x2="1.112" y2="52.356"/>
	
		<line fill="none" stroke="#040000" stroke-width="0.7509" stroke-linecap="square" stroke-miterlimit="10" x1="16.919" y1="16.313" x2="16.919" y2="52.356"/>
	<path fill="none" stroke="#040000" stroke-width="0.7509" stroke-linecap="square" stroke-miterlimit="10" d="M16.919,16.309
		c-0.003-2.501-3.682-4.502-8.279-4.502c-4.599,0-8.277,2-8.28,4.502"/>
</g>
</svg>
