<?xml version="1.0" encoding="utf-8"?>
<!-- Generator: Adobe Illustrator 15.0.0, SVG Export Plug-In . SVG Version: 6.00 Build 0)  -->
<!DOCTYPE svg PUBLIC "-//W3C//DTD SVG 1.1//EN" "http://www.w3.org/Graphics/SVG/1.1/DTD/svg11.dtd">
<svg version="1.1" id="图层_1" xmlns="http://www.w3.org/2000/svg" xmlns:xlink="http://www.w3.org/1999/xlink" x="0px" y="0px"
	 width="15.875px" height="36.094px" viewBox="0 0 15.875 36.094" enable-background="new 0 0 15.875 36.094" xml:space="preserve">
<line fill="none" stroke="#FFFFFF" stroke-width="0.7515" stroke-linecap="square" stroke-miterlimit="10" x1="0.467" y1="5.679" x2="15.478" y2="5.679"/>
<line fill="none" stroke="#FFFFFF" stroke-width="0.7515" stroke-linecap="square" stroke-miterlimit="10" x1="15.478" y1="5.679" x2="15.478" y2="30.479"/>
<line fill="none" stroke="#FFFFFF" stroke-width="0.7515" stroke-linecap="square" stroke-miterlimit="10" x1="15.478" y1="30.479" x2="0.467" y2="30.479"/>
<line fill="none" stroke="#FFFFFF" stroke-width="0.7515" stroke-linecap="square" stroke-miterlimit="10" x1="0.467" y1="30.479" x2="0.467" y2="5.679"/>
<line fill="none" stroke="#040000" stroke-width="0.7515" stroke-linecap="square" stroke-miterlimit="10" x1="0.467" y1="19.958" x2="15.478" y2="29.728"/>
<line fill="none" stroke="#040000" stroke-width="0.7515" stroke-linecap="square" stroke-miterlimit="10" x1="0.467" y1="29.728" x2="15.478" y2="19.958"/>
<line fill="none" stroke="#040000" stroke-width="0.7515" stroke-linecap="square" stroke-miterlimit="10" x1="0.467" y1="6.43" x2="15.478" y2="16.2"/>
<line fill="none" stroke="#040000" stroke-width="0.7515" stroke-linecap="square" stroke-miterlimit="10" x1="0.467" y1="16.2" x2="15.478" y2="6.43"/>
<line fill="none" stroke="#040000" stroke-width="0.7515" stroke-linecap="square" stroke-miterlimit="10" x1="0.467" y1="29.728" x2="15.478" y2="29.728"/>
<line fill="none" stroke="#040000" stroke-width="0.7515" stroke-linecap="square" stroke-miterlimit="10" x1="0.467" y1="19.958" x2="15.478" y2="19.958"/>
<line fill="none" stroke="#040000" stroke-width="0.7515" stroke-linecap="square" stroke-miterlimit="10" x1="0.467" y1="16.2" x2="15.478" y2="16.2"/>
<line fill="none" stroke="#040000" stroke-width="0.7515" stroke-linecap="square" stroke-miterlimit="10" x1="0.467" y1="6.43" x2="15.478" y2="6.43"/>
<line fill="none" stroke="#040000" stroke-width="0.7515" stroke-linecap="square" stroke-miterlimit="10" x1="0.467" y1="5.679" x2="0.467" y2="30.479"/>
<line fill="none" stroke="#040000" stroke-width="0.7515" stroke-linecap="square" stroke-miterlimit="10" x1="15.478" y1="5.679" x2="15.478" y2="30.479"/>
<path fill="none" stroke="#040000" stroke-width="0.7515" stroke-linecap="square" stroke-miterlimit="10" d="M15.478,5.674
	c-0.003-2.921-3.338-5.256-7.505-5.256c-4.168,0-7.502,2.335-7.506,5.256"/>
<path fill="none" stroke="#040000" stroke-width="0.7515" stroke-linecap="square" stroke-miterlimit="10" d="M0.467,30.475
	c0,0.002,0,0.003,0,0.005c0,2.923,3.336,5.261,7.506,5.261c4.169,0,7.505-2.338,7.505-5.261c0-0.002,0-0.003,0-0.005"/>
</svg>
