<?xml version="1.0" encoding="utf-8"?>
<!-- Generator: Adobe Illustrator 15.0.0, SVG Export Plug-In . SVG Version: 6.00 Build 0)  -->
<!DOCTYPE svg PUBLIC "-//W3C//DTD SVG 1.1//EN" "http://www.w3.org/Graphics/SVG/1.1/DTD/svg11.dtd">
<svg version="1.1" id="图层_1" xmlns="http://www.w3.org/2000/svg" xmlns:xlink="http://www.w3.org/1999/xlink" x="0px" y="0px"
	 width="16.688px" height="35.333px" viewBox="0 0 16.688 35.333" enable-background="new 0 0 16.688 35.333" xml:space="preserve">
<line fill="none" stroke="#FFFFFF" stroke-width="0.7504" stroke-linecap="square" stroke-miterlimit="10" x1="0.506" y1="5.674" x2="16.189" y2="5.674"/>
<line fill="none" stroke="#FFFFFF" stroke-width="0.7504" stroke-linecap="square" stroke-miterlimit="10" x1="16.189" y1="5.674" x2="16.189" y2="30.436"/>
<line fill="none" stroke="#FFFFFF" stroke-width="0.7504" stroke-linecap="square" stroke-miterlimit="10" x1="16.189" y1="30.436" x2="0.506" y2="30.436"/>
<line fill="none" stroke="#FFFFFF" stroke-width="0.7504" stroke-linecap="square" stroke-miterlimit="10" x1="0.506" y1="30.436" x2="0.506" y2="5.674"/>
<line fill="none" stroke="#040000" stroke-width="0.7504" stroke-linecap="square" stroke-miterlimit="10" x1="0.506" y1="7.174" x2="16.189" y2="7.174"/>
<line fill="none" stroke="#040000" stroke-width="0.7504" stroke-linecap="square" stroke-miterlimit="10" x1="0.506" y1="28.936" x2="16.189" y2="28.936"/>
<line fill="none" stroke="#040000" stroke-width="0.7504" stroke-linecap="square" stroke-miterlimit="10" x1="0.506" y1="7.174" x2="16.189" y2="28.936"/>
<line fill="none" stroke="#040000" stroke-width="0.7504" stroke-linecap="square" stroke-miterlimit="10" x1="0.506" y1="28.936" x2="16.189" y2="7.174"/>
<line fill="none" stroke="#040000" stroke-width="0.7504" stroke-linecap="square" stroke-miterlimit="10" x1="0.506" y1="5.674" x2="0.506" y2="30.436"/>
<line fill="none" stroke="#040000" stroke-width="0.7504" stroke-linecap="square" stroke-miterlimit="10" x1="16.189" y1="5.674" x2="16.189" y2="30.436"/>
<path fill="none" stroke="#040000" stroke-width="0.7504" stroke-linecap="square" stroke-miterlimit="10" d="M16.189,5.669
	c-0.004-2.917-3.321-5.249-7.469-5.249S1.256,2.753,1.252,5.669"/>
<path fill="none" stroke="#040000" stroke-width="0.7504" stroke-linecap="square" stroke-miterlimit="10" d="M1.252,30.433
	c0,0.001,0,0.002,0,0.003c0,2.502,3.319,4.503,7.469,4.503s7.469-2.001,7.469-4.503c0-0.001,0-0.002,0-0.003"/>
</svg>
