<?xml version="1.0" encoding="utf-8"?>
<!-- Generator: Adobe Illustrator 16.0.0, SVG Export Plug-In . SVG Version: 6.00 Build 0)  -->
<!DOCTYPE svg PUBLIC "-//W3C//DTD SVG 1.1//EN" "http://www.w3.org/Graphics/SVG/1.1/DTD/svg11.dtd">
<svg version="1.1" id="图层_1" xmlns="http://www.w3.org/2000/svg" xmlns:xlink="http://www.w3.org/1999/xlink" x="0px" y="0px"
	 width="64px" height="160px" viewBox="-23.656 -62.333 64 160" enable-background="new -23.656 -62.333 64 160"
	 xml:space="preserve">
<line fill="none" stroke="#FFFFFF" stroke-width="3" stroke-linecap="square" stroke-miterlimit="10" x1="37.171" y1="-36.843" x2="37.171" y2="75.846"/>
<line fill="none" stroke="#040000" stroke-width="3" stroke-linecap="square" stroke-miterlimit="10" x1="-20.762" y1="-30.017" x2="37.171" y2="-30.017"/>
<line fill="none" stroke="#040000" stroke-width="3" stroke-linecap="square" stroke-miterlimit="10" x1="-20.762" y1="69.02" x2="37.171" y2="69.02"/>
<line fill="none" stroke="#040000" stroke-width="3" stroke-linecap="square" stroke-miterlimit="10" x1="-20.656" y1="-28.782" x2="37.171" y2="69.02"/>
<line fill="none" stroke="#040000" stroke-width="3" stroke-linecap="square" stroke-miterlimit="10" x1="-19.693" y1="69.02" x2="37.171" y2="-30.017"/>
<line fill="none" stroke="#040000" stroke-width="3" stroke-linecap="square" stroke-miterlimit="10" x1="-20.656" y1="-36.843" x2="-20.656" y2="75.846"/>
<line fill="none" stroke="#040000" stroke-width="3" stroke-linecap="square" stroke-miterlimit="10" x1="37.171" y1="-36.843" x2="37.171" y2="75.846"/>
<path fill="none" stroke="#040000" stroke-width="3" stroke-linecap="square" stroke-miterlimit="10" d="M37.171-36.866
	C37.156-50.141,24.292-60.754,8.202-60.754c-16.09,0-28.949,10.617-28.965,23.888"/>
<path fill="none" stroke="#040000" stroke-width="3" stroke-linecap="square" stroke-miterlimit="10" d="M-20.762,75.833
	c0,0.005,0,0.01,0,0.013c0,11.387,12.871,20.493,28.969,20.493c16.098,0,28.968-9.106,28.968-20.493c0-0.003,0-0.008,0-0.013"/>
</svg>
