<?xml version="1.0" encoding="utf-8"?>
<!-- Generator: Adobe Illustrator 15.0.0, SVG Export Plug-In . SVG Version: 6.00 Build 0)  -->
<!DOCTYPE svg PUBLIC "-//W3C//DTD SVG 1.1//EN" "http://www.w3.org/Graphics/SVG/1.1/DTD/svg11.dtd">
<svg version="1.1" id="图层_1" xmlns="http://www.w3.org/2000/svg" xmlns:xlink="http://www.w3.org/1999/xlink" x="0px" y="0px"
	 width="23.234px" height="20.48px" viewBox="0 0 23.234 20.48" enable-background="new 0 0 23.234 20.48" xml:space="preserve">
<line fill="none" stroke="#FFFFFF" stroke-width="0.7535" stroke-linecap="square" stroke-miterlimit="10" x1="5.725" y1="14.717" x2="0.497" y2="19.992"/>
<line fill="none" stroke="#FFFFFF" stroke-width="0.7535" stroke-linecap="square" stroke-miterlimit="10" x1="0.497" y1="19.992" x2="19.916" y2="19.992"/>
<line fill="none" stroke="#FFFFFF" stroke-width="0.7535" stroke-linecap="square" stroke-miterlimit="10" x1="19.916" y1="19.992" x2="14.688" y2="14.717"/>
<line fill="none" stroke="#FFFFFF" stroke-width="0.7535" stroke-linecap="square" stroke-miterlimit="10" x1="14.688" y1="14.717" x2="5.725" y2="14.717"/>
<path fill="none" stroke="#040000" stroke-width="0.7535" stroke-linecap="square" stroke-miterlimit="10" d="M10.201,15.47
	c0.002,0,0.004,0,0.006,0c4.149,0,7.469-3.349,7.469-7.535s-3.32-7.536-7.469-7.536c-0.002,0-0.004,0-0.006,0"/>
<path fill="none" stroke="#040000" stroke-width="0.7535" stroke-linecap="square" stroke-miterlimit="10" d="M10.201,0.399
	C6.054,0.403,2.737,3.75,2.737,7.935s3.316,7.532,7.463,7.535"/>
<line fill="none" stroke="#040000" stroke-width="0.7535" stroke-linecap="square" stroke-miterlimit="10" x1="0.497" y1="19.992" x2="19.916" y2="19.992"/>
<line fill="none" stroke="#040000" stroke-width="0.7535" stroke-linecap="square" stroke-miterlimit="10" x1="14.688" y1="14.717" x2="19.916" y2="19.992"/>
<line fill="none" stroke="#040000" stroke-width="0.7535" stroke-linecap="square" stroke-miterlimit="10" x1="1.991" y1="7.935" x2="10.207" y2="7.935"/>
<line fill="none" stroke="#040000" stroke-width="0.7535" stroke-linecap="square" stroke-miterlimit="10" x1="10.207" y1="0.399" x2="22.904" y2="0.399"/>
<line fill="none" stroke="#040000" stroke-width="0.7535" stroke-linecap="square" stroke-miterlimit="10" x1="5.725" y1="14.717" x2="0.497" y2="19.992"/>
</svg>
