<?xml version="1.0" encoding="utf-8"?>
<!-- Generator: Adobe Illustrator 15.0.0, SVG Export Plug-In . SVG Version: 6.00 Build 0)  -->
<!DOCTYPE svg PUBLIC "-//W3C//DTD SVG 1.1//EN" "http://www.w3.org/Graphics/SVG/1.1/DTD/svg11.dtd">
<svg version="1.1" id="图层_1" xmlns="http://www.w3.org/2000/svg" xmlns:xlink="http://www.w3.org/1999/xlink" x="0px" y="0px"
	 width="26.958px" height="12.707px" viewBox="0 0 26.958 12.707" enable-background="new 0 0 26.958 12.707" xml:space="preserve">
<line fill="none" stroke="#040000" stroke-width="0.7493" stroke-linecap="square" stroke-miterlimit="10" x1="0.264" y1="0.387" x2="26.585" y2="0.387"/>
<line fill="none" stroke="#040000" stroke-width="0.7493" stroke-linecap="square" stroke-miterlimit="10" x1="26.585" y1="0.387" x2="26.585" y2="12.375"/>
<line fill="none" stroke="#040000" stroke-width="0.7493" stroke-linecap="square" stroke-miterlimit="10" x1="26.585" y1="12.375" x2="0.264" y2="12.375"/>
<line fill="none" stroke="#040000" stroke-width="0.7493" stroke-linecap="square" stroke-miterlimit="10" x1="0.264" y1="12.375" x2="0.264" y2="0.387"/>
<path fill="none" stroke="#040000" stroke-width="0.7493" stroke-linecap="square" stroke-miterlimit="10" d="M19.06,8.628
	c0.002,0,0.003,0,0.005,0c2.925,0,5.264-0.999,5.264-2.247c0-1.249-2.339-2.248-5.264-2.248c-0.002,0-0.003,0-0.005,0"/>
<path fill="none" stroke="#040000" stroke-width="0.7493" stroke-linecap="square" stroke-miterlimit="10" d="M19.06,4.133
	c-2.922,0.001-5.26,1-5.26,2.248s2.338,2.246,5.26,2.247"/>
<path fill="none" stroke="#040000" stroke-width="0.7493" stroke-linecap="square" stroke-miterlimit="10" d="M7.779,8.628
	c0.001,0,0.003,0,0.005,0c3.342,0,6.016-0.999,6.016-2.247c0-1.249-2.674-2.248-6.016-2.248c-0.002,0-0.003,0-0.005,0"/>
<path fill="none" stroke="#040000" stroke-width="0.7493" stroke-linecap="square" stroke-miterlimit="10" d="M7.779,4.133
	c-3.34,0.001-6.012,1-6.012,2.248s2.671,2.246,6.012,2.247"/>
</svg>
