<?xml version="1.0" encoding="utf-8"?>
<!-- Generator: Adobe Illustrator 16.0.0, SVG Export Plug-In . SVG Version: 6.00 Build 0)  -->
<!DOCTYPE svg PUBLIC "-//W3C//DTD SVG 1.1//EN" "http://www.w3.org/Graphics/SVG/1.1/DTD/svg11.dtd">
<svg version="1.1" id="图层_1" xmlns="http://www.w3.org/2000/svg" xmlns:xlink="http://www.w3.org/1999/xlink" x="0px" y="0px"
	 width="8.73px" height="6.281px" viewBox="0 0 8.73 6.281" enable-background="new 0 0 8.73 6.281" xml:space="preserve">
<path fill="none" stroke="#040000" stroke-width="0.5" d="M6.06,2.473H0"/>
<path fill="none" stroke="#040000" stroke-width="0.5" d="M3.85,2.473l0.19-0.9 M4.04,1.572l0.54-0.74 M4.58,0.832l0.79-0.459
	 M5.37,0.373l0.92-0.091 M6.29,0.282l0.87,0.28 M7.16,0.563l0.68,0.609 M7.84,1.172l0.38,0.841 M8.22,2.013v0.92 M8.22,2.933
	l-0.38,0.84 M7.84,3.771l-0.68,0.61 M7.16,4.383L6.29,4.672 M6.29,4.672l-0.92-0.1 M5.37,4.572L4.58,4.111 M4.58,4.111L4.04,3.373
	 M4.04,3.373l-0.19-0.9"/>
<path fill="none" stroke="#040000" stroke-width="0.5" d="M4.93,4.373l-1,1.67"/>
<path fill="none" stroke="#040000" stroke-width="0.5" d="M3.93,6.043h4.25"/>
<path fill="none" stroke="#040000" stroke-width="0.5" d="M7.19,4.373l0.989,1.67"/>
<path fill="none" stroke="#040000" stroke-width="0.5" d="M6.06,2.473H3.85"/>
<path fill="#040000" d="M0.89,2.912v-0.88l2.21,0.44l0,0L0.89,2.912z"/>
</svg>
