<?xml version="1.0" encoding="utf-8"?>
<!-- Generator: Adobe Illustrator 16.0.0, SVG Export Plug-In . SVG Version: 6.00 Build 0)  -->
<!DOCTYPE svg PUBLIC "-//W3C//DTD SVG 1.1//EN" "http://www.w3.org/Graphics/SVG/1.1/DTD/svg11.dtd">
<svg version="1.1" id="图层_1" xmlns="http://www.w3.org/2000/svg" xmlns:xlink="http://www.w3.org/1999/xlink" x="0px" y="0px"
	 width="8.943px" height="6.313px" viewBox="0 0 8.943 6.313" enable-background="new 0 0 8.943 6.313" xml:space="preserve">
<path fill="none" stroke="#040000" stroke-width="0.5" d="M2.895,2.478h6.05"/>
<path fill="none" stroke="#040000" stroke-width="0.5" d="M0.685,2.478l0.19-0.89 M0.875,1.588l0.54-0.75 M1.415,0.837l0.79-0.46
	 M2.205,0.377l0.92-0.09 M3.125,0.288l0.87,0.279 M3.995,0.567l0.68,0.62 M4.675,1.188l0.38,0.84 M5.055,2.027v0.91 M5.055,2.938
	l-0.38,0.84 M4.675,3.777l-0.68,0.62 M3.995,4.397l-0.87,0.28 M3.125,4.678l-0.92-0.1 M2.205,4.578l-0.79-0.451 M1.415,4.127
	l-0.54-0.75 M0.875,3.377l-0.19-0.899"/>
<path fill="none" stroke="#040000" stroke-width="0.5" d="M4.024,4.377l0.99,1.681"/>
<path fill="none" stroke="#040000" stroke-width="0.5" d="M5.015,6.058h-4.25"/>
<path fill="none" stroke="#040000" stroke-width="0.5" d="M1.765,4.377l-1,1.681"/>
<path fill="none" stroke="#040000" stroke-width="0.5" d="M2.895,2.478h2.2"/>
<path fill="#040000" d="M8.055,2.037v0.891l-2.21-0.45l0,0L8.055,2.037z"/>
</svg>
