<?xml version="1.0" encoding="utf-8"?>
<!-- Generator: Adobe Illustrator 16.0.0, SVG Export Plug-In . SVG Version: 6.00 Build 0)  -->
<!DOCTYPE svg PUBLIC "-//W3C//DTD SVG 1.1//EN" "http://www.w3.org/Graphics/SVG/1.1/DTD/svg11.dtd">
<svg version="1.1" id="图层_1" xmlns="http://www.w3.org/2000/svg" xmlns:xlink="http://www.w3.org/1999/xlink" x="0px" y="0px"
	 width="11.2px" height="7.206px" viewBox="0 0 11.2 7.206" enable-background="new 0 0 11.2 7.206" xml:space="preserve">
<path fill="none" stroke="#040000" stroke-width="0.5" d="M2.79,3.95L2.971,3 M2.971,3l0.51-0.82 M3.48,2.18L4.25,1.6 M4.25,1.6
	l0.92-0.27 M5.17,1.33l0.971,0.09 M6.141,1.42L7,1.85 M7,1.85l0.65,0.72 M7.65,2.57L8,3.47 M8,3.47v0.96 M8,4.43l-0.35,0.9
	 M7.65,5.33L7,6.05 M7,6.05l-0.859,0.43 M6.141,6.479L5.17,6.569 M5.17,6.569L4.25,6.3 M4.25,6.3L3.48,5.72 M3.48,5.72l-0.51-0.82
	 M2.971,4.899L2.79,3.95"/>
<path fill="none" stroke="#040000" stroke-width="0.5" d="M3.561,2.09l3.71,3.72"/>
<path fill="none" stroke="#040000" stroke-width="0.5" d="M0,3.95h2.79"/>
<path fill="none" stroke="#040000" stroke-width="0.5" d="M8.04,3.95h3.16"/>
<path fill="none" stroke="#040000" stroke-width="0.5" d="M8.51,7.04L7.271,5.81"/>
<path fill="none" stroke="#040000" stroke-width="0.5" d="M3.561,2.09L2.33,0.86"/>
<path fill="none" stroke="#040000" stroke-width="0.5" d="M8.51,7.04L7.271,5.81"/>
<path fill="none" stroke="#040000" stroke-width="0.5" d="M3.561,2.09L2.33,0.86"/>
<path fill="#040000" d="M2.21,3.51v0.88L0,3.95l0,0L2.21,3.51z"/>
<path fill="#040000" d="M3.34,1.25L2.721,1.88L1.471,0l0,0L3.34,1.25z"/>
</svg>
