<?xml version="1.0" encoding="utf-8"?>
<!-- Generator: Adobe Illustrator 16.0.0, SVG Export Plug-In . SVG Version: 6.00 Build 0)  -->
<!DOCTYPE svg PUBLIC "-//W3C//DTD SVG 1.1//EN" "http://www.w3.org/Graphics/SVG/1.1/DTD/svg11.dtd">
<svg version="1.1" id="图层_1" xmlns="http://www.w3.org/2000/svg" xmlns:xlink="http://www.w3.org/1999/xlink" x="0px" y="0px"
	 width="10.91px" height="10.879px" viewBox="0 0 10.91 10.879" enable-background="new 0 0 10.91 10.879" xml:space="preserve">
<path fill="none" stroke="#040000" stroke-width="0.5" d="M5.449,6.99v1.08"/>
<path fill="none" stroke="#040000" stroke-width="0.5" d="M5.449,3.88V2.81"/>
<path fill="none" stroke="#040000" stroke-width="0.5" d="M4.109,3.88H6.79"/>
<path fill="none" stroke="#040000" stroke-width="0.5" d="M6.79,6.99H4.109"/>
<path fill="none" stroke="#040000" stroke-width="0.5" d="M2.819,5.44L3,4.49 M3,4.49l0.51-0.82 M3.51,3.67l0.77-0.58 M4.279,3.09
	L5.21,2.82 M5.21,2.82l0.96,0.09 M6.17,2.91l0.87,0.43 M7.04,3.34l0.649,0.71 M7.689,4.05l0.34,0.9 M8.029,4.95V5.92 M8.029,5.92
	L7.689,6.82 M7.689,6.82L7.04,7.53 M7.04,7.53l-0.87,0.43 M6.17,7.959l-0.96,0.09 M5.21,8.049L4.279,7.79 M4.279,7.79l-0.77-0.58
	 M3.51,7.209L3,6.39 M3,6.39L2.819,5.44"/>
<path fill="none" stroke="#040000" stroke-width="0.5" d="M5.449,2.81V0"/>
<path fill="none" stroke="#040000" stroke-width="0.5" d="M5.47,8.07v2.81"/>
<path fill="none" stroke="#040000" stroke-width="0.5" d="M8.1,5.44h2.811"/>
<path fill="none" stroke="#040000" stroke-width="0.5" d="M2.84,5.44H0"/>
</svg>
