<?xml version="1.0" encoding="utf-8"?>
<!-- Generator: Adobe Illustrator 16.0.0, SVG Export Plug-In . SVG Version: 6.00 Build 0)  -->
<!DOCTYPE svg PUBLIC "-//W3C//DTD SVG 1.1//EN" "http://www.w3.org/Graphics/SVG/1.1/DTD/svg11.dtd">
<svg version="1.1" id="图层_1" xmlns="http://www.w3.org/2000/svg" xmlns:xlink="http://www.w3.org/1999/xlink" x="0px" y="0px"
	 width="9.641px" height="7.359px" viewBox="0 0 9.641 7.359" enable-background="new 0 0 9.641 7.359" xml:space="preserve">
<path fill="none" stroke="#040000" stroke-width="0.5" d="M7.879,6.36l1.529-3.82"/>
<path fill="none" stroke="#040000" stroke-width="0.5" d="M1.778,6.36l-1.53-3.82"/>
<path fill="none" stroke="#040000" stroke-width="0.5" d="M0.248,2.541v-2.28"/>
<path fill="none" stroke="#040000" stroke-width="0.5" d="M9.408,2.541h-9.16"/>
<path fill="none" stroke="#040000" stroke-width="0.5" d="M9.408,0.261v2.28"/>
<path fill="none" stroke="#040000" stroke-width="0.5" d="M0.248,0.261h9.16"/>
<path fill="none" stroke="#040000" stroke-width="0.5" d="M4.828,6.36l0.12,0.29 M4.948,6.65L4.948,6.65 M4.948,6.65l0.33,0.25
	 M5.278,6.9L5.278,6.9 M5.278,6.9l0.49,0.16 M5.769,7.061L5.769,7.061 M5.769,7.061l0.59,0.061 M6.358,7.121L6.358,7.121
	 M6.358,7.121l0.58-0.061 M6.938,7.061L6.938,7.061 M6.938,7.061l0.5-0.16 M7.438,6.9L7.438,6.9 M7.438,6.9l0.33-0.25 M7.769,6.65
	L7.769,6.65 M7.769,6.65l0.11-0.29 M7.879,6.36L7.879,6.36 M7.879,6.36l-0.11-0.29 M7.769,6.07L7.769,6.07 M7.769,6.07l-0.33-0.25
	 M7.438,5.82L7.438,5.82 M7.438,5.82l-0.5-0.17 M6.938,5.65L6.938,5.65 M6.938,5.65l-0.58-0.05 M6.358,5.601L6.358,5.601
	 M6.358,5.601l-0.59,0.05 M5.769,5.65L5.769,5.65 M5.769,5.65l-0.49,0.17 M5.278,5.82L5.278,5.82 M5.278,5.82l-0.33,0.25
	 M4.948,6.07L4.948,6.07 M4.948,6.07l-0.12,0.29"/>
<path fill="none" stroke="#040000" stroke-width="0.5" d="M4.828,6.36L4.719,6.07 M4.719,6.07L4.719,6.07 M4.719,6.07l-0.34-0.25
	 M4.379,5.82L4.379,5.82 M4.379,5.82l-0.49-0.17 M3.889,5.65L3.889,5.65 M3.889,5.65l-0.58-0.05 M3.309,5.601L3.309,5.601
	 M3.309,5.601l-0.59,0.05 M2.719,5.65L2.719,5.65 M2.719,5.65l-0.49,0.17 M2.229,5.82L2.229,5.82 M2.229,5.82l-0.33,0.25
	 M1.898,6.07L1.898,6.07 M1.898,6.07l-0.12,0.29 M1.778,6.36L1.778,6.36 M1.778,6.36l0.12,0.29 M1.898,6.65L1.898,6.65 M1.898,6.65
	l0.33,0.25 M2.229,6.9L2.229,6.9 M2.229,6.9l0.49,0.16 M2.719,7.061L2.719,7.061 M2.719,7.061l0.59,0.061 M3.309,7.121L3.309,7.121
	 M3.309,7.121l0.58-0.061 M3.889,7.061L3.889,7.061 M3.889,7.061l0.49-0.16 M4.379,6.9L4.379,6.9 M4.379,6.9l0.34-0.25 M4.719,6.65
	L4.719,6.65 M4.719,6.65l0.109-0.29"/>
</svg>
