<?xml version="1.0" encoding="utf-8"?>
<!-- Generator: Adobe Illustrator 16.0.0, SVG Export Plug-In . SVG Version: 6.00 Build 0)  -->
<!DOCTYPE svg PUBLIC "-//W3C//DTD SVG 1.1//EN" "http://www.w3.org/Graphics/SVG/1.1/DTD/svg11.dtd">
<svg version="1.1" id="图层_1" xmlns="http://www.w3.org/2000/svg" xmlns:xlink="http://www.w3.org/1999/xlink" x="0px" y="0px"
	 width="11.25px" height="20.083px" viewBox="0 0 11.25 20.083" enable-background="new 0 0 11.25 20.083" xml:space="preserve">
<path fill="none" stroke="#040000" stroke-width="0.5" d="M10.992,2.485v15.15"/>
<path fill="none" stroke="#040000" stroke-width="0.5" d="M0.271,2.485v15.15"/>
<path fill="none" stroke="#040000" stroke-width="0.5" d="M10.992,2.485l-0.07-0.38 M10.921,2.105l-0.22-0.33 M10.702,1.775
	L10.702,1.775 M10.702,1.775l-0.601-0.49 M10.101,1.285l-0.68-0.359 M9.421,0.925L9.421,0.925 M9.421,0.925L7.821,0.464
	 M7.821,0.464L7.821,0.464 M7.821,0.464l-2.189-0.18 M5.631,0.285L5.631,0.285 M5.631,0.285l-2.18,0.18 M3.452,0.464L3.452,0.464
	 M3.452,0.464l-1.61,0.461 M1.841,0.925L1.841,0.925 M1.841,0.925l-0.68,0.359 M1.162,1.285l-0.591,0.49 M0.571,1.775L0.571,1.775
	 M0.571,1.775l-0.22,0.33 M0.351,2.105l-0.08,0.38"/>
<path fill="none" stroke="#040000" stroke-width="0.5" d="M10.992,17.635l-0.07,0.39 M10.921,18.025l-0.22,0.32 M10.702,18.345
	L10.702,18.345 M10.702,18.345l-0.601,0.49 M10.101,18.835l-0.68,0.359 M9.421,19.195L9.421,19.195 M9.421,19.195l-1.601,0.461
	 M7.821,19.656L7.821,19.656 M7.821,19.656l-2.189,0.189 M5.631,19.845L5.631,19.845 M5.631,19.845l-2.18-0.189 M3.452,19.656
	L3.452,19.656 M3.452,19.656l-1.61-0.461 M1.841,19.195L1.841,19.195 M1.841,19.195l-0.68-0.359 M1.162,18.835l-0.591-0.49
	 M0.571,18.345L0.571,18.345 M0.571,18.345l-0.22-0.32 M0.351,18.025l-0.08-0.39"/>
</svg>
