<?xml version="1.0" encoding="utf-8"?>
<!-- Generator: Adobe Illustrator 16.0.0, SVG Export Plug-In . SVG Version: 6.00 Build 0)  -->
<!DOCTYPE svg PUBLIC "-//W3C//DTD SVG 1.1//EN" "http://www.w3.org/Graphics/SVG/1.1/DTD/svg11.dtd">
<svg version="1.1" id="图层_1" xmlns="http://www.w3.org/2000/svg" xmlns:xlink="http://www.w3.org/1999/xlink" x="0px" y="0px"
	 width="7.859px" height="4.531px" viewBox="0 0 7.859 4.531" enable-background="new 0 0 7.859 4.531" xml:space="preserve">
<path fill="none" stroke="#040000" stroke-width="0.5" d="M6.771,4.281h-5.68"/>
<path fill="none" stroke="#040000" stroke-width="0.5" d="M6.771,0.25h-5.68"/>
<path fill="none" stroke="#040000" stroke-width="0.5" d="M6.771,4.281l0.14-0.031 M6.911,4.25l0.131-0.09 M7.042,4.16L7.042,4.16
	 M7.042,4.16l0.31-0.47 M7.352,3.69L7.352,3.69 M7.352,3.69l0.18-0.61 M7.531,3.081L7.531,3.081 M7.531,3.081l0.07-0.82
	 M7.602,2.261L7.602,2.261 M7.602,2.261l-0.07-0.82 M7.531,1.44L7.531,1.44 M7.531,1.44l-0.18-0.6 M7.352,0.841L7.352,0.841
	 M7.352,0.841l-0.31-0.48 M7.042,0.36L7.042,0.36 M7.042,0.36l-0.131-0.08 M6.911,0.281l-0.14-0.03"/>
<path fill="none" stroke="#040000" stroke-width="0.5" d="M1.092,4.281L0.941,4.25 M0.941,4.25l-0.12-0.09 M0.821,4.16L0.821,4.16
	 M0.821,4.16L0.502,3.69 M0.502,3.69L0.502,3.69 M0.502,3.69l-0.17-0.61 M0.332,3.081L0.332,3.081 M0.332,3.081l-0.07-0.82
	 M0.262,2.261L0.262,2.261 M0.262,2.261l0.07-0.82 M0.332,1.44L0.332,1.44 M0.332,1.44l0.17-0.6 M0.502,0.841L0.502,0.841
	 M0.502,0.841l0.319-0.48 M0.821,0.36L0.821,0.36 M0.821,0.36l0.12-0.08 M0.941,0.281l0.15-0.03"/>
</svg>
