<?xml version="1.0" encoding="utf-8"?>
<!-- Generator: Adobe Illustrator 16.0.0, SVG Export Plug-In . SVG Version: 6.00 Build 0)  -->
<!DOCTYPE svg PUBLIC "-//W3C//DTD SVG 1.1//EN" "http://www.w3.org/Graphics/SVG/1.1/DTD/svg11.dtd">
<svg version="1.1" id="图层_1" xmlns="http://www.w3.org/2000/svg" xmlns:xlink="http://www.w3.org/1999/xlink" x="0px" y="0px"
	 width="7.844px" height="10.172px" viewBox="0 0 7.844 10.172" enable-background="new 0 0 7.844 10.172" xml:space="preserve">
<path fill="none" stroke="#040000" stroke-width="0.5" d="M6.764,9.925h-5.68"/>
<path fill="none" stroke="#040000" stroke-width="0.5" d="M6.764,5.905h-5.68"/>
<path fill="none" stroke="#040000" stroke-width="0.5" d="M6.764,9.925l0.15-0.03 M6.914,9.895l0.12-0.08 M7.034,9.814L7.034,9.814
	 M7.034,9.814l0.32-0.479 M7.354,9.335L7.354,9.335 M7.354,9.335l0.17-0.601 M7.524,8.734L7.524,8.734 M7.524,8.734l0.069-0.819
	 M7.594,7.915L7.594,7.915 M7.594,7.915l-0.069-0.82 M7.524,7.095L7.524,7.095 M7.524,7.095l-0.17-0.6 M7.354,6.495L7.354,6.495
	 M7.354,6.495l-0.32-0.479 M7.034,6.016L7.034,6.016 M7.034,6.016l-0.12-0.091 M6.914,5.925l-0.15-0.02"/>
<path fill="none" stroke="#040000" stroke-width="0.5" d="M1.084,9.925l-0.14-0.03 M0.944,9.895l-0.13-0.08 M0.814,9.814
	L0.814,9.814 M0.814,9.814L0.504,9.335 M0.504,9.335L0.504,9.335 M0.504,9.335l-0.18-0.601 M0.324,8.734L0.324,8.734 M0.324,8.734
	l-0.07-0.819 M0.254,7.915L0.254,7.915 M0.254,7.915l0.07-0.82 M0.324,7.095L0.324,7.095 M0.324,7.095l0.18-0.6 M0.504,6.495
	L0.504,6.495 M0.504,6.495l0.311-0.479 M0.814,6.016L0.814,6.016 M0.814,6.016l0.13-0.091 M0.944,5.925l0.14-0.02"/>
<path fill="#040000" d="M3.994,5.905h-0.04v-5.32l0.04,0.05V5.905z"/>
<path fill="#040000" d="M3.994,0.635l-0.04-0.05h2.48l-0.051,0.05H3.994z"/>
<path fill="#040000" d="M6.384,0.635l0.051-0.05v5.32H6.384V0.635z"/>
<path fill="none" stroke="#040000" stroke-width="0.5" d="M6.404,0.615l-0.78-0.36 M5.624,0.255h-0.86 M4.764,0.255l-0.789,0.36"/>
</svg>
