<?xml version="1.0" encoding="utf-8"?>
<!-- Generator: Adobe Illustrator 16.0.0, SVG Export Plug-In . SVG Version: 6.00 Build 0)  -->
<!DOCTYPE svg PUBLIC "-//W3C//DTD SVG 1.1//EN" "http://www.w3.org/Graphics/SVG/1.1/DTD/svg11.dtd">
<svg version="1.1" id="图层_1" xmlns="http://www.w3.org/2000/svg" xmlns:xlink="http://www.w3.org/1999/xlink" x="0px" y="0px"
	 width="10.016px" height="29.219px" viewBox="0 0 10.016 29.219" enable-background="new 0 0 10.016 29.219" xml:space="preserve">
<path fill="none" stroke="#040000" stroke-width="0.5" d="M9.762,7.563l-9.49,11.86"/>
<path fill="none" stroke="#040000" stroke-width="0.5" d="M0.271,7.563l9.49,11.86"/>
<path fill="none" stroke="#040000" stroke-width="0.5" d="M0.271,2.653v23.94"/>
<path fill="none" stroke="#040000" stroke-width="0.5" d="M9.762,2.653v23.94"/>
<path fill="none" stroke="#040000" stroke-width="0.5" d="M0.271,26.594l0.02,0.199 M0.291,26.793l0.05,0.2 M0.341,26.993l0.09,0.2
	 M0.431,27.193l0.11,0.18 M0.541,27.373l0.14,0.18 M0.681,27.553l0.16,0.15 M0.841,27.703l0.16,0.15 M1.001,27.854l0.18,0.13
	 M1.181,27.983l0.18,0.12 M1.361,28.104l0.19,0.1 M1.551,28.203l0.18,0.1 M1.731,28.303l0.18,0.08 M1.911,28.383l0.18,0.07
	 M2.091,28.453l0.17,0.061 M2.261,28.514l0.17,0.06 M2.431,28.573l0.16,0.05 M2.591,28.623l0.15,0.05 M2.741,28.673l0.15,0.04
	 M2.891,28.713l0.15,0.03 M3.041,28.743l0.14,0.03 M3.181,28.773l0.14,0.029 M3.321,28.803l0.13,0.021 M3.451,28.823l0.13,0.021
	 M3.581,28.844l0.12,0.02 M3.701,28.863l0.12,0.02 M3.821,28.883l0.12,0.01 M3.941,28.893l0.11,0.021 M4.051,28.913l0.12,0.01
	 M4.171,28.923l0.11,0.011 M4.281,28.934l0.11,0.01 M4.391,28.943h0.1 M4.491,28.943l0.11,0.01 M4.601,28.953h0.1 M4.701,28.953
	h0.11 M4.811,28.953l0.1,0.01 M4.911,28.963h0.11 M5.021,28.963h0.1 M5.121,28.963l0.1-0.01 M5.221,28.953h0.11 M5.331,28.953h0.1
	 M5.431,28.953l0.11-0.01 M5.541,28.943h0.11 M5.651,28.943l0.1-0.01 M5.751,28.934l0.11-0.011 M5.861,28.923l0.12-0.01
	 M5.981,28.913l0.11-0.021 M6.091,28.893l0.12-0.01 M6.211,28.883l0.12-0.02 M6.331,28.863l0.12-0.02 M6.451,28.844l0.13-0.021
	 M6.581,28.823l0.13-0.021 M6.711,28.803l0.14-0.029 M6.852,28.773l0.14-0.03 M6.991,28.743l0.149-0.03 M7.141,28.713l0.15-0.04
	 M7.291,28.673l0.15-0.05 M7.441,28.623l0.16-0.05 M7.602,28.573l0.17-0.06 M7.771,28.514l0.17-0.061 M7.941,28.453l0.18-0.07
	 M8.121,28.383l0.18-0.08 M8.301,28.303l0.181-0.1 M8.481,28.203l0.19-0.1 M8.672,28.104l0.18-0.12 M8.852,27.983l0.18-0.13
	 M9.031,27.854l0.17-0.15 M9.201,27.703l0.15-0.15 M9.352,27.553l0.14-0.18 M9.491,27.373l0.11-0.18 M9.602,27.193l0.09-0.2
	 M9.691,26.993l0.05-0.2 M9.741,26.793l0.021-0.199"/>
<path fill="none" stroke="#040000" stroke-width="0.5" d="M0.271,26.594h9.49"/>
<path fill="none" stroke="#040000" stroke-width="0.5" d="M0.271,19.423h9.49"/>
<path fill="none" stroke="#040000" stroke-width="0.5" d="M9.762,2.653l-0.021-0.21 M9.741,2.443l-0.05-0.2 M9.691,2.243l-0.09-0.2
	 M9.602,2.043l-0.11-0.18 M9.491,1.863l-0.14-0.18 M9.352,1.683l-0.15-0.15 M9.201,1.533l-0.17-0.15 M9.031,1.383l-0.18-0.13
	 M8.852,1.253l-0.18-0.12 M8.672,1.133l-0.19-0.1 M8.481,1.033l-0.181-0.09 M8.301,0.943l-0.18-0.09 M8.121,0.853l-0.18-0.07
	 M7.941,0.783l-0.17-0.06 M7.771,0.723l-0.17-0.06 M7.602,0.663l-0.16-0.05 M7.441,0.613l-0.15-0.05 M7.291,0.563l-0.15-0.04
	 M7.141,0.523l-0.149-0.03 M6.991,0.493l-0.14-0.03 M6.852,0.463l-0.14-0.03 M6.711,0.433l-0.13-0.02 M6.581,0.413l-0.13-0.02
	 M6.451,0.393l-0.12-0.02 M6.331,0.373l-0.12-0.02 M6.211,0.353l-0.12-0.01 M6.091,0.343l-0.11-0.02 M5.981,0.323l-0.12-0.01
	 M5.861,0.313l-0.11-0.01 M5.751,0.303h-0.1 M5.651,0.303l-0.11-0.01 M5.541,0.293l-0.11-0.01 M5.431,0.283h-0.1 M5.331,0.283h-0.11
	 M5.221,0.283l-0.1-0.01 M5.121,0.273h-0.1 M5.021,0.273h-0.11 M4.911,0.273l-0.1,0.01 M4.811,0.283h-0.11 M4.701,0.283h-0.1
	 M4.601,0.283l-0.11,0.01 M4.491,0.293l-0.1,0.01 M4.391,0.303h-0.11 M4.281,0.303l-0.11,0.01 M4.171,0.313l-0.12,0.01 M4.051,0.323
	l-0.11,0.02 M3.941,0.343l-0.12,0.01 M3.821,0.353l-0.12,0.02 M3.701,0.373l-0.12,0.02 M3.581,0.393l-0.13,0.02 M3.451,0.413
	l-0.13,0.02 M3.321,0.433l-0.14,0.03 M3.181,0.463l-0.14,0.03 M3.041,0.493l-0.15,0.03 M2.891,0.523l-0.15,0.04 M2.741,0.563
	l-0.15,0.05 M2.591,0.613l-0.16,0.05 M2.431,0.663l-0.17,0.06 M2.261,0.723l-0.17,0.06 M2.091,0.783l-0.18,0.07 M1.911,0.853
	l-0.18,0.09 M1.731,0.943l-0.18,0.09 M1.551,1.033l-0.19,0.1 M1.361,1.133l-0.18,0.12 M1.181,1.253l-0.18,0.13 M1.001,1.383
	l-0.16,0.15 M0.841,1.533l-0.16,0.15 M0.681,1.683l-0.14,0.18 M0.541,1.863l-0.11,0.18 M0.431,2.043l-0.09,0.2 M0.341,2.243
	l-0.05,0.2 M0.291,2.443l-0.02,0.21"/>
<path fill="none" stroke="#040000" stroke-width="0.5" d="M0.271,2.653h9.49"/>
<path fill="none" stroke="#040000" stroke-width="0.5" d="M0.271,7.563h9.49"/>
</svg>
