<?xml version="1.0" encoding="utf-8"?>
<!-- Generator: Adobe Illustrator 16.0.0, SVG Export Plug-In . SVG Version: 6.00 Build 0)  -->
<!DOCTYPE svg PUBLIC "-//W3C//DTD SVG 1.1//EN" "http://www.w3.org/Graphics/SVG/1.1/DTD/svg11.dtd">
<svg version="1.1" id="图层_1" xmlns="http://www.w3.org/2000/svg" xmlns:xlink="http://www.w3.org/1999/xlink" x="0px" y="0px"
	 width="10px" height="27.859px" viewBox="0 0 10 27.859" enable-background="new 0 0 10 27.859" xml:space="preserve">
<path fill="none" stroke="#040000" stroke-width="0.5" d="M0.274,2.662h9.479"/>
<path fill="none" stroke="#040000" stroke-width="0.5" d="M0.274,2.662v22.59"/>
<path fill="none" stroke="#040000" stroke-width="0.5" d="M9.754,2.662v22.59"/>
<path fill="none" stroke="#040000" stroke-width="0.5" d="M0.274,25.252h9.479"/>
<path fill="none" stroke="#040000" stroke-width="0.5" d="M9.754,2.662l-0.01-0.21 M9.744,2.452l-0.06-0.2 M9.685,2.252l-0.08-0.2
	 M9.604,2.052l-0.12-0.18 M9.484,1.872l-0.13-0.181 M9.354,1.691l-0.16-0.149 M9.194,1.542l-0.17-0.15 M9.024,1.392l-0.17-0.13
	 M8.854,1.262l-0.19-0.12 M8.664,1.142l-0.18-0.1 M8.484,1.042l-0.18-0.09 M8.305,0.952l-0.18-0.091 M8.125,0.861L7.944,0.792
	 M7.944,0.792l-0.17-0.06 M7.774,0.732l-0.17-0.061 M7.604,0.672l-0.16-0.05 M7.444,0.622l-0.16-0.05 M7.284,0.572L7.135,0.531
	 M7.135,0.531L6.994,0.502 M6.994,0.502l-0.14-0.03 M6.854,0.472l-0.14-0.03 M6.715,0.441l-0.131-0.02 M6.584,0.422l-0.129-0.02
	 M6.455,0.402L6.334,0.382 M6.334,0.382L6.215,0.361 M6.215,0.361l-0.121-0.01 M6.094,0.352l-0.119-0.02 M5.975,0.332l-0.11-0.01
	 M5.864,0.322l-0.11-0.01 M5.754,0.313L5.645,0.302 M5.645,0.302h-0.11 M5.534,0.302l-0.1-0.01 M5.435,0.292h-0.11 M5.324,0.292
	h-0.1 M5.225,0.292l-0.1-0.011 M5.125,0.281H5.014 M5.014,0.281h-0.1 M4.914,0.281L4.805,0.292 M4.805,0.292h-0.1 M4.705,0.292
	H4.604 M4.604,0.292l-0.11,0.01 M4.494,0.302H4.385 M4.385,0.302l-0.11,0.011 M4.274,0.313l-0.11,0.01 M4.164,0.322l-0.109,0.01
	 M4.055,0.332l-0.11,0.02 M3.944,0.352l-0.12,0.01 M3.824,0.361L3.705,0.382 M3.705,0.382L3.574,0.402 M3.574,0.402l-0.13,0.02
	 M3.444,0.422l-0.13,0.02 M3.314,0.441l-0.13,0.03 M3.185,0.472l-0.14,0.03 M3.045,0.502l-0.15,0.029 M2.895,0.531l-0.15,0.041
	 M2.744,0.572l-0.16,0.05 M2.584,0.622l-0.16,0.05 M2.424,0.672l-0.16,0.061 M2.264,0.732l-0.18,0.06 M2.084,0.792l-0.17,0.069
	 M1.914,0.861l-0.18,0.091 M1.734,0.952l-0.189,0.09 M1.545,1.042l-0.181,0.1 M1.364,1.142l-0.18,0.12 M1.185,1.262l-0.181,0.13
	 M1.004,1.392l-0.17,0.15 M0.834,1.542L0.685,1.691 M0.685,1.691l-0.14,0.181 M0.545,1.872l-0.11,0.18 M0.435,2.052l-0.091,0.2
	 M0.344,2.252l-0.049,0.2 M0.295,2.452l-0.021,0.21"/>
<path fill="none" stroke="#040000" stroke-width="0.5" d="M0.274,25.252l0.021,0.21 M0.295,25.462l0.049,0.2 M0.344,25.662
	l0.091,0.199 M0.435,25.861l0.11,0.181 M0.545,26.042l0.14,0.17 M0.685,26.212l0.149,0.16 M0.834,26.372l0.17,0.149 M1.004,26.521
	l0.181,0.131 M1.185,26.652l0.18,0.109 M1.364,26.762l0.181,0.11 M1.545,26.872l0.189,0.09 M1.734,26.962l0.18,0.08 M1.914,27.042
	l0.17,0.08 M2.084,27.122l0.18,0.06 M2.264,27.182l0.16,0.061 M2.424,27.242l0.16,0.05 M2.584,27.292l0.16,0.04 M2.744,27.332
	l0.15,0.04 M2.895,27.372l0.15,0.04 M3.045,27.412l0.14,0.029 M3.185,27.441l0.13,0.03 M3.314,27.472l0.13,0.021 M3.444,27.492
	l0.13,0.02 M3.574,27.512l0.131,0.02 M3.705,27.531l0.119,0.021 M3.824,27.552l0.12,0.011 M3.944,27.563l0.11,0.01 M4.055,27.572
	l0.109,0.01 M4.164,27.582l0.11,0.01 M4.274,27.592l0.11,0.01 M4.385,27.602l0.109,0.01 M4.494,27.611h0.11 M4.604,27.611
	l0.101,0.011 M4.705,27.622h0.1 M4.805,27.622h0.109 M4.914,27.622h0.1 M5.014,27.622h0.111 M5.125,27.622h0.1 M5.225,27.622h0.1
	 M5.324,27.622l0.11-0.011 M5.435,27.611h0.1 M5.534,27.611l0.11-0.01 M5.645,27.602l0.109-0.01 M5.754,27.592l0.11-0.01
	 M5.864,27.582l0.11-0.01 M5.975,27.572l0.119-0.01 M6.094,27.563l0.121-0.011 M6.215,27.552l0.119-0.021 M6.334,27.531l0.121-0.02
	 M6.455,27.512l0.129-0.02 M6.584,27.492l0.131-0.021 M6.715,27.472l0.14-0.03 M6.854,27.441l0.14-0.029 M6.994,27.412l0.141-0.04
	 M7.135,27.372l0.149-0.04 M7.284,27.332l0.16-0.04 M7.444,27.292l0.16-0.05 M7.604,27.242l0.17-0.061 M7.774,27.182l0.17-0.06
	 M7.944,27.122l0.181-0.08 M8.125,27.042l0.18-0.08 M8.305,26.962l0.18-0.09 M8.484,26.872l0.18-0.11 M8.664,26.762l0.19-0.109
	 M8.854,26.652l0.17-0.131 M9.024,26.521l0.17-0.149 M9.194,26.372l0.16-0.16 M9.354,26.212l0.13-0.17 M9.484,26.042l0.12-0.181
	 M9.604,25.861l0.08-0.199 M9.685,25.662l0.06-0.2 M9.744,25.462l0.01-0.21"/>
<path fill="none" stroke="#040000" stroke-width="0.5" d="M0.274,7.572h9.479"/>
<path fill="none" stroke="#040000" stroke-width="0.5" d="M0.274,10.861h9.479"/>
<path fill="none" stroke="#040000" stroke-width="0.5" d="M0.274,14.162h9.479"/>
<path fill="none" stroke="#040000" stroke-width="0.5" d="M0.274,17.452h9.479"/>
</svg>
