<?xml version="1.0" encoding="utf-8"?>
<!-- Generator: Adobe Illustrator 16.0.0, SVG Export Plug-In . SVG Version: 6.00 Build 0)  -->
<!DOCTYPE svg PUBLIC "-//W3C//DTD SVG 1.1//EN" "http://www.w3.org/Graphics/SVG/1.1/DTD/svg11.dtd">
<svg version="1.1" id="图层_1" xmlns="http://www.w3.org/2000/svg" xmlns:xlink="http://www.w3.org/1999/xlink" x="0px" y="0px"
	 width="13.061px" height="24.015px" viewBox="0 0 13.061 24.015" enable-background="new 0 0 13.061 24.015" xml:space="preserve">
<path fill="none" stroke="#040000" stroke-width="0.5" d="M0.261,1.834H6.62"/>
<path fill="none" stroke="#040000" stroke-width="0.5" d="M0.261,1.834v15.15"/>
<path fill="none" stroke="#040000" stroke-width="0.5" d="M6.62,1.834v15.15"/>
<path fill="none" stroke="#040000" stroke-width="0.5" d="M0.261,16.984H6.62"/>
<path fill="none" stroke="#040000" stroke-width="0.5" d="M6.62,1.834l-0.02-0.14 M6.601,1.694l-0.03-0.14 M6.57,1.554l-0.06-0.13
	 M6.511,1.424l-0.08-0.12 M6.431,1.304l-0.09-0.12 M6.341,1.185L6.24,1.074 M6.24,1.074l-0.109-0.09 M6.131,0.984l-0.12-0.09
	 M6.011,0.895l-0.13-0.08 M5.881,0.814l-0.12-0.07 M5.761,0.744l-0.12-0.06 M5.641,0.685l-0.12-0.06 M5.521,0.625L5.4,0.584
	 M5.4,0.584l-0.12-0.05 M5.28,0.534l-0.11-0.04 M5.17,0.494l-0.109-0.03 M5.061,0.464L4.96,0.435 M4.96,0.435l-0.1-0.03 M4.86,0.404
	l-0.1-0.02 M4.761,0.384L4.67,0.364 M4.67,0.364l-0.1-0.02 M4.57,0.344l-0.08-0.01 M4.49,0.334L4.4,0.314 M4.4,0.314l-0.08-0.01
	 M4.32,0.304l-0.08-0.01 M4.24,0.294l-0.08-0.01 M4.16,0.284l-0.08-0.01 M4.08,0.274l-0.069-0.01 M4.011,0.265h-0.08 M3.931,0.265
	l-0.07-0.01 M3.86,0.254H3.79 M3.79,0.254l-0.069-0.01 M3.721,0.244h-0.08 M3.641,0.244H3.57 M3.57,0.244h-0.06 M3.511,0.244H3.44
	 M3.44,0.244H3.37 M3.37,0.244H3.301 M3.301,0.244H3.23 M3.23,0.244H3.16 M3.16,0.244l-0.069,0.01 M3.091,0.254h-0.08 M3.011,0.254
	l-0.07,0.01 M2.94,0.265H2.87 M2.87,0.265l-0.08,0.01 M2.79,0.274l-0.08,0.01 M2.71,0.284l-0.079,0.01 M2.631,0.294l-0.08,0.01
	 M2.551,0.304l-0.08,0.01 M2.471,0.314l-0.08,0.02 M2.391,0.334l-0.09,0.01 M2.301,0.344L2.21,0.364 M2.21,0.364l-0.1,0.02
	 M2.11,0.384l-0.1,0.02 M2.011,0.404L1.91,0.435 M1.91,0.435l-0.1,0.03 M1.811,0.464L1.7,0.494 M1.7,0.494l-0.109,0.04 M1.591,0.534
	l-0.12,0.05 M1.471,0.584l-0.12,0.04 M1.351,0.625l-0.12,0.06 M1.23,0.685l-0.12,0.06 M1.11,0.744l-0.12,0.07 M0.99,0.814
	l-0.12,0.08 M0.87,0.895l-0.12,0.09 M0.75,0.984l-0.119,0.09 M0.631,1.074L0.53,1.185 M0.53,1.185l-0.09,0.12 M0.44,1.304
	l-0.08,0.12 M0.36,1.424l-0.06,0.13 M0.301,1.554l-0.03,0.14 M0.271,1.694l-0.01,0.14"/>
<path fill="none" stroke="#040000" stroke-width="0.5" d="M0.261,16.984l0.01,0.141 M0.271,17.125l0.03,0.129 M0.301,17.254
	l0.06,0.131 M0.36,17.385l0.08,0.13 M0.44,17.515l0.09,0.11 M0.53,17.625l0.101,0.109 M0.631,17.734l0.119,0.09 M0.75,17.824
	l0.12,0.09 M0.87,17.914l0.12,0.08 M0.99,17.994l0.12,0.07 M1.11,18.064l0.12,0.061 M1.23,18.125l0.12,0.06 M1.351,18.185l0.12,0.05
	 M1.471,18.234l0.12,0.04 M1.591,18.274l0.109,0.04 M1.7,18.314l0.11,0.029 M1.811,18.344l0.1,0.031 M1.91,18.375l0.101,0.029
	 M2.011,18.404l0.1,0.02 M2.11,18.424l0.1,0.021 M2.21,18.444l0.091,0.021 M2.301,18.465l0.09,0.02 M2.391,18.484l0.08,0.01
	 M2.471,18.494l0.08,0.01 M2.551,18.504l0.08,0.021 M2.631,18.524H2.71 M2.71,18.524l0.08,0.01 M2.79,18.534l0.08,0.011
	 M2.87,18.545l0.07,0.01 M2.94,18.555h0.07 M3.011,18.555l0.08,0.01 M3.091,18.564H3.16 M3.16,18.564h0.07 M3.23,18.564h0.07
	 M3.301,18.564l0.069,0.01 M3.37,18.574h0.07 M3.44,18.574h0.07 M3.511,18.574l0.06-0.01 M3.57,18.564h0.07 M3.641,18.564h0.08
	 M3.721,18.564H3.79 M3.79,18.564l0.07-0.01 M3.86,18.555h0.07 M3.931,18.555l0.08-0.01 M4.011,18.545l0.069-0.011 M4.08,18.534
	l0.08-0.01 M4.16,18.524h0.08 M4.24,18.524l0.08-0.021 M4.32,18.504l0.08-0.01 M4.4,18.494l0.09-0.01 M4.49,18.484l0.08-0.02
	 M4.57,18.465l0.1-0.021 M4.67,18.444l0.091-0.021 M4.761,18.424l0.1-0.02 M4.86,18.404l0.1-0.029 M4.96,18.375l0.101-0.031
	 M5.061,18.344l0.109-0.029 M5.17,18.314l0.11-0.04 M5.28,18.274l0.12-0.04 M5.4,18.234l0.12-0.05 M5.521,18.185l0.12-0.06
	 M5.641,18.125l0.12-0.061 M5.761,18.064l0.12-0.07 M5.881,17.994l0.13-0.08 M6.011,17.914l0.12-0.09 M6.131,17.824l0.109-0.09
	 M6.24,17.734l0.101-0.109 M6.341,17.625l0.09-0.11 M6.431,17.515l0.08-0.13 M6.511,17.385l0.06-0.131 M6.57,17.254l0.03-0.129
	 M6.601,17.125l0.02-0.141"/>
<path fill="none" stroke="#040000" stroke-width="0.5" d="M0.261,5.125H6.62"/>
<path fill="none" stroke="#040000" stroke-width="0.5" d="M0.261,7.334H6.62"/>
<path fill="none" stroke="#040000" stroke-width="0.5" d="M0.261,9.545H6.62"/>
<path fill="none" stroke="#040000" stroke-width="0.5" d="M0.261,11.754H6.62"/>
<path fill="none" stroke="#040000" stroke-width="0.5" d="M7.641,21.444l0.17-0.75 M7.811,20.694l0.479-0.61 M8.29,20.084l0.7-0.33
	 M8.99,19.754h0.771 M9.761,19.754l0.689,0.33 M10.45,20.084l0.48,0.61 M10.931,20.694l0.18,0.75 M11.11,21.444l-0.18,0.75
	 M10.931,22.194l-0.48,0.61 M10.45,22.805l-0.689,0.33 M9.761,23.135H8.99 M8.99,23.135l-0.7-0.33 M8.29,22.805l-0.479-0.61
	 M7.811,22.194l-0.17-0.75"/>
<path fill="none" stroke="#040000" stroke-width="0.5" d="M10.601,20.215l-2.45,2.459"/>
<path fill="none" stroke="#040000" stroke-width="0.5" d="M12.95,21.444h-1.84"/>
<path fill="none" stroke="#040000" stroke-width="0.5" d="M7.641,21.444h-2.08"/>
<path fill="none" stroke="#040000" stroke-width="0.5" d="M7.33,23.484l0.82-0.811"/>
<path fill="none" stroke="#040000" stroke-width="0.5" d="M10.601,20.215l0.81-0.811"/>
<path fill="none" stroke="#040000" stroke-width="0.5" d="M7.021,23.795l0.81-0.811"/>
<path fill="none" stroke="#040000" stroke-width="0.5" d="M10.601,20.215l0.81-0.811"/>
<path fill="#040000" d="M11.49,21.734v-0.58l1.46,0.29l0,0L11.49,21.734z"/>
<path fill="#040000" d="M7.631,22.774l0.409,0.42l-1.239,0.82l0,0L7.631,22.774z"/>
<path fill="#040000" d="M3.12,18.564h0.221v2.85L3.12,21.635V18.564z"/>
<path fill="#040000" d="M3.12,21.635l0.221-0.221h2.22v0.221H3.12z"/>
<path fill="#040000" d="M13.061,21.444h-0.22v-5.101l0.22-0.219V21.444z"/>
<path fill="#040000" d="M13.061,16.125l-0.22,0.219H6.66v-0.219H13.061z"/>
</svg>
