<?xml version="1.0" encoding="utf-8"?>
<!-- Generator: Adobe Illustrator 16.0.0, SVG Export Plug-In . SVG Version: 6.00 Build 0)  -->
<!DOCTYPE svg PUBLIC "-//W3C//DTD SVG 1.1//EN" "http://www.w3.org/Graphics/SVG/1.1/DTD/svg11.dtd">
<svg version="1.1" id="图层_1" xmlns="http://www.w3.org/2000/svg" xmlns:xlink="http://www.w3.org/1999/xlink" x="0px" y="0px"
	 width="84px" height="210px" viewBox="-31.779 -83.075 84 210" enable-background="new -31.779 -83.075 84 210"
	 xml:space="preserve">
<path fill="none" stroke="#040000" stroke-width="2" d="M-31.115-31.372H7.777"/>
<path fill="none" stroke="#040000" stroke-width="2" d="M-31.115-31.372V76.397"/>
<path fill="none" stroke="#040000" stroke-width="2" d="M7.777-31.372V76.397"/>
<path fill="none" stroke="#040000" stroke-width="2" d="M-31.115,76.397H7.777"/>
<path fill="none" stroke="#040000" stroke-width="2" d="M7.777-31.372l-0.084-0.956 M7.692-32.328l-0.204-1.001 M7.485-33.329
	l-0.368-0.903 M7.12-34.232l-0.452-0.907 M6.669-35.139l-0.574-0.81 M6.095-35.949l-0.656-0.764 M5.435-36.714L4.779-37.38
	 M4.779-37.38L4.042-38 M4.047-38l-0.74-0.572 M3.302-38.572l-0.776-0.48 M2.526-39.052l-0.74-0.475 M1.785-39.527l-0.737-0.381
	 M1.052-39.908l-0.74-0.336 M0.313-40.244l-0.696-0.331 M-0.379-40.575l-0.697-0.242 M-1.076-40.817l-0.656-0.238 M-1.737-41.055
	l-0.616-0.236 M-2.348-41.291l-0.613-0.191 M-2.961-41.482l-0.617-0.146 M-3.578-41.628l-0.572-0.139 M-4.15-41.766l-0.577-0.145
	 M-4.729-41.911l-0.533-0.145 M-5.259-42.055l-0.531-0.094 M-5.789-42.149l-0.493-0.097 M-6.282-42.246l-0.492-0.046 M-6.779-42.292
	l-0.492-0.094 M-7.271-42.386l-0.448-0.05 M-7.719-42.436l-0.493-0.046 M-8.212-42.483l-0.451-0.048 M-8.663-42.531l-0.449-0.047
	 M-9.108-42.578h-0.412 M-9.519-42.578l-0.449-0.05 M-9.968-42.628h-0.413 M-10.381-42.628l-0.448-0.046 M-10.829-42.675h-0.413
	 M-11.241-42.675h-0.447 M-11.689-42.675H-12.1 M-12.1-42.675h-0.409 M-12.51-42.675l-0.452,0.046 M-12.961-42.628h-0.409
	 M-13.37-42.628l-0.452,0.05 M-13.822-42.578h-0.408 M-14.23-42.578l-0.453,0.047 M-14.687-42.531l-0.452,0.048 M-15.138-42.483
	l-0.492,0.046 M-15.63-42.436l-0.45,0.05 M-16.08-42.386l-0.492,0.094 M-16.572-42.292l-0.493,0.046 M-17.06-42.246l-0.493,0.097
	 M-17.552-42.149l-0.531,0.094 M-18.083-42.055l-0.533,0.145 M-18.62-41.911l-0.573,0.145 M-19.19-41.766l-0.574,0.139
	 M-19.764-41.628l-0.614,0.146 M-20.378-41.482l-0.615,0.191 M-20.993-41.291l-0.616,0.236 M-21.614-41.055l-0.652,0.238
	 M-22.262-40.817l-0.697,0.242 M-22.959-40.575l-0.705,0.331 M-23.663-40.244l-0.735,0.336 M-24.394-39.908l-0.737,0.381
	 M-25.136-39.527l-0.739,0.475 M-25.875-39.052l-0.778,0.48 M-26.653-38.572L-27.388-38 M-27.384-38l-0.745,0.62 M-28.129-37.38
	l-0.657,0.667 M-28.785-36.714l-0.648,0.764 M-29.434-35.949l-0.577,0.81 M-30.01-35.139l-0.448,0.907 M-30.458-34.232l-0.372,0.903
	 M-30.835-33.329l-0.203,1.001 M-31.034-32.328l-0.081,0.956"/>
<path fill="none" stroke="#040000" stroke-width="2" d="M-31.115,76.397l0.081,0.998 M-31.034,77.395l0.204,0.956 M-30.835,78.351
	l0.373,0.901 M-30.458,79.252l0.448,0.904 M-30.01,80.161l0.577,0.811 M-29.434,80.972l0.653,0.763 M-28.785,81.735l0.657,0.672
	 M-28.129,82.406l0.74,0.624 M-27.384,83.024l0.735,0.572 M-26.653,83.597l0.778,0.524 M-25.875,84.121l0.739,0.426 M-25.136,84.547
	l0.738,0.384 M-24.394,84.931l0.736,0.335 M-23.663,85.266l0.697,0.331 M-22.959,85.599l0.697,0.291 M-22.262,85.886l0.652,0.235
	 M-21.614,86.121l0.616,0.189 M-20.993,86.311l0.615,0.192 M-20.378,86.503l0.614,0.194 M-19.764,86.698l0.574,0.141 M-19.19,86.838
	l0.573,0.095 M-18.62,86.933l0.533,0.146 M-18.083,87.078l0.531,0.097 M-17.552,87.175l0.493,0.097 M-17.06,87.271l0.492,0.044
	 M-16.572,87.315l0.492,0.103 M-16.08,87.411l0.45,0.049 M-15.63,87.46l0.492,0.046 M-15.138,87.506l0.452,0.051 M-14.687,87.557
	l0.453,0.046 M-14.23,87.599l0.408,0.053 M-13.822,87.652h0.452 M-13.37,87.652l0.409,0.044 M-12.961,87.696h0.452 M-12.51,87.696
	h0.409 M-12.1,87.696h0.412 M-11.689,87.696h0.447 M-11.241,87.696h0.413 M-10.829,87.696h0.448 M-10.381,87.696l0.413-0.044
	 M-9.968,87.652h0.449 M-9.519,87.652l0.412-0.053 M-9.108,87.599l0.449-0.051 M-8.663,87.557l0.451-0.051 M-8.212,87.506
	l0.493-0.046 M-7.719,87.46l0.448-0.049 M-7.271,87.411l0.492-0.104 M-6.779,87.315l0.493-0.044 M-6.282,87.271l0.493-0.102
	 M-5.789,87.175l0.531-0.097 M-5.259,87.078l0.532-0.146 M-4.729,86.933l0.576-0.095 M-4.15,86.838l0.572-0.141 M-3.578,86.698
	l0.617-0.194 M-2.961,86.503l0.613-0.192 M-2.348,86.311l0.616-0.189 M-1.737,86.121l0.657-0.235 M-1.076,85.886l0.697-0.289
	 M-0.379,85.599l0.696-0.329 M0.313,85.266l0.736-0.335 M1.052,84.931l0.737-0.384 M1.785,84.547l0.74-0.426 M2.526,84.121
	l0.776-0.524 M3.302,83.597l0.74-0.566 M4.047,83.024l0.736-0.623 M4.779,82.406l0.657-0.672 M5.435,81.735l0.657-0.763
	 M6.095,80.972l0.574-0.811 M6.669,80.161l0.452-0.902 M7.12,79.252l0.368-0.901 M7.485,78.351l0.204-0.956 M7.692,77.395
	l0.084-0.998"/>
<path fill="none" stroke="#040000" stroke-width="2" d="M-31.115-7.912H7.777"/>
<path fill="none" stroke="#040000" stroke-width="2" d="M-31.115,7.777H7.777"/>
<path fill="none" stroke="#040000" stroke-width="2" d="M-31.115,23.466H7.777"/>
<path fill="none" stroke="#040000" stroke-width="2" d="M-31.115,39.201H7.777"/>
<path fill="none" stroke="#040000" stroke-width="2" d="M18.306-64.18l0.817-4.721 M19.123-68.901l2.295-4.004 M21.418-72.905
	l3.448-2.678 M24.866-75.579l4.051-0.899 M28.917-76.482l4.062,0.899 M32.979-75.579l3.438,2.678 M36.417-72.905l2.298,4.004
	 M38.715-68.901l0.775,4.721 M39.49-64.18l-0.775,4.724 M38.715-59.457l-2.298,4.004 M36.417-55.453l-3.438,2.669 M32.979-52.784
	l-4.062,0.954 M28.917-51.83l-4.051-0.954 M24.866-52.784l-3.448-2.669 M21.418-55.453l-2.295-4.004 M19.123-59.457l-0.817-4.724"/>
<path fill="none" stroke="#040000" stroke-width="2" d="M36.417-72.905L21.418-55.453"/>
<path fill="none" stroke="#040000" stroke-width="2" d="M50.761-64.18H39.49"/>
<path fill="none" stroke="#040000" stroke-width="2" d="M18.306-64.18H5.599"/>
<path fill="none" stroke="#040000" stroke-width="2" d="M16.417-49.636l5.001-5.817"/>
<path fill="none" stroke="#040000" stroke-width="2" d="M36.417-72.905l4.955-5.771"/>
<path fill="none" stroke="#040000" stroke-width="2" d="M16.417-49.636l5.001-5.817"/>
<path fill="none" stroke="#040000" stroke-width="2" d="M36.417-72.905l4.955-5.771"/>
<path fill="#040000" d="M41.867-62.083v-4.145l8.894,2.048l0,0L41.867-62.083z"/>
<path fill="#040000" d="M39.778-73.907l-2.502-2.911l7.537-5.862l0,0L39.778-73.907z"/>
<path fill="none" stroke="#040000" stroke-width="2" d="M13.999,108.153l0.82-4.721 M14.82,103.432l2.294-4.006 M17.114,99.426
	l3.441-2.673 M20.555,96.753l4.058-0.949 M24.613,95.804l4.058,0.949 M28.67,96.753l3.441,2.673 M32.112,99.426l2.303,4.006
	 M34.414,103.432l0.812,4.721 M35.226,108.153l-0.812,4.723 M34.414,112.875l-2.303,4.006 M32.112,116.881l-3.441,2.678
	 M28.67,119.559l-4.058,0.896 M24.613,120.455l-4.058-0.896 M20.555,119.559l-3.441-2.678 M17.114,116.881l-2.294-4.006
	 M14.82,112.875l-0.82-4.723"/>
<path fill="none" stroke="#040000" stroke-width="2" d="M32.112,99.426l-14.998,17.455"/>
<path fill="none" stroke="#040000" stroke-width="2" d="M46.456,108.153h-11.23"/>
<path fill="none" stroke="#040000" stroke-width="2" d="M13.999,108.153H1.298"/>
<path fill="none" stroke="#040000" stroke-width="2" d="M12.158,122.649l4.955-5.768"/>
<path fill="none" stroke="#040000" stroke-width="2" d="M32.112,99.426l4.961-5.815"/>
<path fill="none" stroke="#040000" stroke-width="2" d="M10.23,124.889l4.958-5.814"/>
<path fill="none" stroke="#040000" stroke-width="2" d="M32.112,99.426l4.961-5.815"/>
<path fill="#040000" d="M37.564,110.207v-4.145l8.893,2.09l0,0L37.564,110.207z"/>
<path fill="#040000" d="M13.923,117.645l2.534,2.905l-7.581,5.862l0,0L13.923,117.645z"/>
<path fill="#040000" d="M-13.617,87.696h1.353v20.266l-1.353,1.576V87.696z"/>
<path fill="#040000" d="M-13.617,108.941l1.353-1.576H1.302v1.576H-13.617z"/>
<path fill="#040000" d="M47.152,108.153h-1.354v-36.28l1.354-1.572V108.153z"/>
<path fill="#040000" d="M47.152,70.3l-1.354,1.572H8.059V70.3H47.152z"/>
<path fill="#040000" stroke="#040000" d="M-9.724-42.628h-1.353v-21.934l1.353,1.528V-42.628z"/>
<path fill="#040000" stroke="#040000" d="M-9.724-63.225l-1.353-1.528l16.64-0.382l0.04,1.574L-9.724-63.225z"/>
<path fill="#040000" d="M50.105-64.18h1.353v36.669l-1.353-1.575V-64.18z"/>
<path fill="#040000" d="M50.105-29.086l1.353,1.575H7.981v-1.575H50.105z"/>
</svg>
