<?xml version="1.0" encoding="utf-8"?>
<!-- Generator: Adobe Illustrator 16.0.0, SVG Export Plug-In . SVG Version: 6.00 Build 0)  -->
<!DOCTYPE svg PUBLIC "-//W3C//DTD SVG 1.1//EN" "http://www.w3.org/Graphics/SVG/1.1/DTD/svg11.dtd">
<svg version="1.1" id="图层_1" xmlns="http://www.w3.org/2000/svg" xmlns:xlink="http://www.w3.org/1999/xlink" x="0px" y="0px"
	 width="176.529px" height="94.95px" viewBox="0 0 176.529 94.95" enable-background="new 0 0 176.529 94.95" xml:space="preserve">
<path fill="#040000" d="M1.92,36.91v-3.83h127.14l3.83,3.83H1.92z"/>
<path fill="#040000" d="M132.89,36.91l-3.83-3.83V0l3.83,9.26V36.91z"/>
<path fill="#040000" d="M132.89,9.26L129.06,0l47.47,47.47h-5.42L132.89,9.26z"/>
<path fill="#040000" d="M171.109,47.47h5.42l-47.47,47.48l3.83-9.26L171.109,47.47z"/>
<path fill="#040000" d="M132.89,85.69l-3.83,9.26V61.87l3.83-3.83V85.69z"/>
<path fill="#040000" d="M132.89,58.04l-3.83,3.83H0l3.84-3.83H132.89z"/>
<path fill="#040000" d="M3.84,58.04L0,61.87V33.08l3.84,3.83V58.04z"/>
<path fill="#040000" d="M3.84,36.91L0,33.08h130.97v3.83H3.84z"/>
</svg>
