<?xml version="1.0" encoding="utf-8"?>
<!-- Generator: Adobe Illustrator 16.0.0, SVG Export Plug-In . SVG Version: 6.00 Build 0)  -->
<!DOCTYPE svg PUBLIC "-//W3C//DTD SVG 1.1//EN" "http://www.w3.org/Graphics/SVG/1.1/DTD/svg11.dtd">
<svg version="1.1" id="图层_1" xmlns="http://www.w3.org/2000/svg" xmlns:xlink="http://www.w3.org/1999/xlink" x="0px" y="0px"
	 width="176.529px" height="94.95px" viewBox="0 0 176.529 94.95" enable-background="new 0 0 176.529 94.95" xml:space="preserve">
<path fill="#040000" d="M174.619,33.08v3.83H43.649l3.83-3.83H174.619z"/>
<path fill="#040000" d="M47.479,33.08l-3.83,3.83V9.26L47.479,0V33.08z"/>
<path fill="#040000" d="M47.479,0l-3.83,9.26L5.43,47.47H0L47.479,0z"/>
<path fill="#040000" d="M0,47.47h5.43l38.22,38.221l3.83,9.26L0,47.47z"/>
<path fill="#040000" d="M47.479,94.95l-3.83-9.26V58.04l3.83,3.83V94.95z"/>
<path fill="#040000" d="M47.479,61.87l-3.83-3.83h129.05l3.83,3.83H47.479z"/>
<path fill="#040000" d="M176.529,61.87l-3.83-3.83V36.91l3.83-3.83V61.87z"/>
<path fill="#040000" d="M176.529,33.08l-3.83,3.83H45.56v-3.83H176.529z"/>
</svg>
