<?xml version="1.0" encoding="utf-8"?>
<!-- Generator: Adobe Illustrator 16.0.0, SVG Export Plug-In . SVG Version: 6.00 Build 0)  -->
<!DOCTYPE svg PUBLIC "-//W3C//DTD SVG 1.1//EN" "http://www.w3.org/Graphics/SVG/1.1/DTD/svg11.dtd">
<svg version="1.1" id="图层_1" xmlns="http://www.w3.org/2000/svg" xmlns:xlink="http://www.w3.org/1999/xlink" x="0px" y="0px"
	 width="28.79px" height="28.79px" viewBox="0 0 28.79 28.79" enable-background="new 0 0 28.79 28.79" xml:space="preserve">
<path fill="none" stroke="#040000" stroke-width="0.5" d="M1.91,1.92v24.95"/>
<path fill="none" stroke="#040000" stroke-width="0.5" d="M1.91,1.92h24.96"/>
<path fill="none" stroke="#040000" stroke-width="0.5" d="M26.87,26.87H1.91"/>
<path fill="none" stroke="#040000" stroke-width="0.5" d="M26.87,26.87V1.92"/>
<path fill="#040000" d="M1.91,3.83V0h26.88l-3.84,3.83H1.91z"/>
<path fill="#040000" d="M24.95,3.83L28.79,0v28.79l-3.84-3.83V3.83z"/>
<path fill="#040000" d="M24.95,24.96l3.84,3.83H0l3.83-3.83H24.95z"/>
<path fill="#040000" d="M3.83,24.96L0,28.79V0l3.83,3.83V24.96z"/>
<path fill="#040000" d="M3.83,3.83L0,0h26.87v3.83H3.83z"/>
<path fill="#040000" d="M25.52,0.56l2.71,2.71L3.27,28.23l-2.71-2.71L25.52,0.56z"/>
<path fill="#040000" d="M0.56,3.27l2.71-2.71l24.96,24.96l-2.71,2.71L0.56,3.27z"/>
</svg>
