<?xml version="1.0" encoding="utf-8"?>
<!-- Generator: Adobe Illustrator 16.0.0, SVG Export Plug-In . SVG Version: 6.00 Build 0)  -->
<!DOCTYPE svg PUBLIC "-//W3C//DTD SVG 1.1//EN" "http://www.w3.org/Graphics/SVG/1.1/DTD/svg11.dtd">
<svg version="1.1" id="图层_1" xmlns="http://www.w3.org/2000/svg" xmlns:xlink="http://www.w3.org/1999/xlink" x="0px" y="0px"
	 width="212.23px" height="213.391px" viewBox="0 0 212.23 213.391" enable-background="new 0 0 212.23 213.391"
	 xml:space="preserve">
<title>Produce by Acme CAD Converter</title>
<desc>Produce by Acme CAD Converter</desc>
<path fill="none" stroke="#000000" stroke-width="0.5" d="M20.87,120.26h170.479"/>
<path fill="none" stroke="#000000" stroke-width="0.5" d="M191.349,211.8H20.87"/>
<path fill="none" stroke="#000000" stroke-width="0.5" d="M182.451,21.1H111.25"/>
<path fill="none" stroke="#000000" stroke-width="0.5" d="M182.451,21.1v99.16"/>
<path fill="none" stroke="#000000" stroke-width="0.5" d="M111.249,21.1v99.16"/>
<path d="M19.519,118.91l-3.56,3.84l2.92,2.489l3.35-3.619L19.519,118.91z"/>
<path d="M15.96,122.75l-3.24,4.108l3.11,2.25l3.05-3.869L15.96,122.75z"/>
<path d="M12.719,126.859L9.82,131.21l3.27,2l2.74-4.102L12.719,126.859z"/>
<path d="M9.82,131.21L7.26,135.78l3.42,1.739l2.41-4.31L9.82,131.21z"/>
<path d="M7.26,135.78l-2.189,4.75L8.61,142l2.069-4.48L7.26,135.78z"/>
<path d="M5.07,140.53l-1.811,4.909l3.65,1.182l1.7-4.62L5.07,140.53z"/>
<path d="M3.26,145.439l-1.42,5.03l3.73,0.9l1.34-4.75L3.26,145.439z"/>
<path d="M1.84,150.47l-1.02,5.14l3.79,0.602l0.96-4.84L1.84,150.47z"/>
<path d="M0.82,155.609l-0.62,5.19l3.83,0.3l0.58-4.89L0.82,155.609z"/>
<path d="M0.2,160.8L0,166.03h3.83l0.2-4.931L0.2,160.8z"/>
<path d="M0,166.03l0.2,5.229l3.83-0.3l-0.2-4.931L0,166.03L0,166.03z"/>
<path d="M0.2,171.26l0.62,5.2l3.79-0.602l-0.58-4.898L0.2,171.26z"/>
<path d="M0.82,176.46l1.02,5.13l3.73-0.9l-0.96-4.83L0.82,176.46z"/>
<path d="M1.84,181.59l1.42,5.04l3.65-1.19l-1.34-4.75L1.84,181.59z"/>
<path d="M3.26,186.63l1.811,4.91l3.54-1.471l-1.7-4.631L3.26,186.63z"/>
<path d="M5.07,191.54l2.189,4.75l3.42-1.74l-2.069-4.479L5.07,191.54z"/>
<path d="M7.26,196.29l2.561,4.56l3.27-2l-2.41-4.3L7.26,196.29z"/>
<path d="M9.82,200.85l2.899,4.36l3.11-2.261l-2.74-4.101L9.82,200.85z"/>
<path d="M12.719,205.21l3.24,4.101l2.92-2.49l-3.05-3.869L12.719,205.21z"/>
<path d="M15.96,209.311l3.56,3.851l2.71-2.71l-3.35-3.631L15.96,209.311z"/>
<path d="M192.71,118.91l3.55,3.84l-2.91,2.489l-3.351-3.619L192.71,118.91z"/>
<path d="M196.26,122.75l3.239,4.108l-3.101,2.25l-3.05-3.869L196.26,122.75z"/>
<path d="M199.499,126.859l2.91,4.352l-3.271,2l-2.74-4.102L199.499,126.859z"/>
<path d="M202.41,131.21l2.561,4.569l-3.42,1.739l-2.41-4.31L202.41,131.21z"/>
<path d="M204.969,135.78l2.189,4.75L203.61,142l-2.062-4.48L204.969,135.78z"/>
<path d="M207.16,140.53l1.811,4.909l-3.649,1.182l-1.709-4.62L207.16,140.53z"/>
<path d="M208.969,145.439l1.42,5.03l-3.729,0.9l-1.34-4.75L208.969,145.439z"/>
<path d="M210.389,150.47l1.021,5.14l-3.789,0.602l-0.961-4.84L210.389,150.47z"/>
<path d="M211.41,155.609l0.609,5.19l-3.818,0.3l-0.58-4.89L211.41,155.609z"/>
<path d="M212.019,160.8l0.21,5.229H208.4l-0.199-4.931L212.019,160.8z"/>
<path d="M212.229,166.03l-0.21,5.229l-3.818-0.3l0.198-4.931L212.229,166.03L212.229,166.03z"/>
<path d="M212.019,171.26l-0.609,5.2l-3.789-0.602l0.58-4.898L212.019,171.26z"/>
<path d="M211.41,176.46l-1.021,5.13l-3.729-0.9l0.961-4.83L211.41,176.46z"/>
<path d="M210.389,181.59l-1.42,5.04l-3.649-1.19l1.34-4.75L210.389,181.59z"/>
<path d="M208.969,186.63l-1.811,4.91l-3.549-1.471l1.709-4.631L208.969,186.63z"/>
<path d="M207.16,191.54l-2.189,4.75l-3.42-1.74l2.062-4.479L207.16,191.54z"/>
<path d="M204.969,196.29l-2.561,4.56l-3.271-2l2.41-4.3L204.969,196.29z"/>
<path d="M202.41,200.85l-2.91,4.36l-3.101-2.261l2.74-4.101L202.41,200.85z"/>
<path d="M199.499,205.21l-3.239,4.101l-2.91-2.49l3.05-3.869L199.499,205.21z"/>
<path d="M196.26,209.311l-3.55,3.851l-2.711-2.71l3.351-3.631L196.26,209.311z"/>
<path d="M20.87,122.18v-3.83h170.479v3.83H20.87z"/>
<path d="M109.76,19.89l2.83-3.17l2.739,2.67l-2.59,2.92L109.76,19.89z"/>
<path d="M112.59,16.72l3.09-2.91l2.5,2.91l-2.851,2.67L112.59,16.72z"/>
<path d="M115.679,13.81l3.33-2.62l2.239,3.12l-3.069,2.41L115.679,13.81z"/>
<path d="M119.01,11.19l3.561-2.319l1.949,3.31l-3.271,2.13L119.01,11.19z"/>
<path d="M122.57,8.87l3.75-1.99l1.641,3.47l-3.44,1.83L122.57,8.87z"/>
<path d="M126.32,6.88l3.909-1.65l1.33,3.601l-3.6,1.52L126.32,6.88z"/>
<path d="M130.229,5.23l4.04-1.29l1.012,3.7l-3.722,1.19L130.229,5.23z"/>
<path d="M134.269,3.94L138.41,3l0.67,3.779l-3.799,0.86L134.269,3.94z"/>
<path d="M138.41,3l4.201-0.561l0.34,3.82l-3.871,0.521L138.41,3z"/>
<path d="M142.611,2.44l4.238-0.189v3.84l-3.898,0.17L142.611,2.44z"/>
<path d="M146.849,2.25l4.24,0.189l-0.341,3.82l-3.899-0.17V2.25z"/>
<path d="M151.09,2.44L155.29,3l-0.67,3.779l-3.871-0.521L151.09,2.44z"/>
<path d="M155.29,3l4.14,0.939l-1.011,3.7l-3.799-0.86L155.29,3z"/>
<path d="M159.429,3.94l4.04,1.29l-1.33,3.601l-3.721-1.19L159.429,3.94z"/>
<path d="M163.469,5.23l3.91,1.65l-1.641,3.47l-3.601-1.52L163.469,5.23z"/>
<path d="M167.38,6.88l3.75,1.99l-1.95,3.31l-3.439-1.83L167.38,6.88z"/>
<path d="M171.13,8.87l3.56,2.319l-2.238,3.12l-3.271-2.13L171.13,8.87z"/>
<path d="M174.689,11.19l3.33,2.62l-2.5,2.91l-3.068-2.41L174.689,11.19z"/>
<path d="M178.019,13.81l3.092,2.91l-2.74,2.67l-2.852-2.67L178.019,13.81z"/>
<path d="M181.111,16.72l2.828,3.17l-2.979,2.42l-2.59-2.92L181.111,16.72z"/>
<path d="M109.329,21.1h3.84v99.16h-3.84V21.1z"/>
<path d="M180.531,21.1h3.84v99.16h-3.84V21.1z"/>
<path d="M20.87,215.641v-7.671h170.479v7.671H20.87z"/>
<path d="M108.919,22.77l4.671-3.35l71.2,99.17l-4.68,3.35L108.919,22.77z"/>
<path d="M180.111,19.42l4.68,3.35l-71.2,99.169l-4.671-3.35L180.111,19.42z"/>
<path d="M111.249,23.97v-5.75h71.201v5.75H111.249z"/>
</svg>
