<?xml version="1.0" encoding="utf-8"?>
<!-- Generator: Adobe Illustrator 16.0.0, SVG Export Plug-In . SVG Version: 6.00 Build 0)  -->
<!DOCTYPE svg PUBLIC "-//W3C//DTD SVG 1.1//EN" "http://www.w3.org/Graphics/SVG/1.1/DTD/svg11.dtd">
<svg version="1.1" id="图层_1" xmlns="http://www.w3.org/2000/svg" xmlns:xlink="http://www.w3.org/1999/xlink" x="0px" y="0px"
	 width="212.24px" height="95.38px" viewBox="0 0 212.24 95.38" enable-background="new 0 0 212.24 95.38" xml:space="preserve">
<path fill="none" stroke="#040000" stroke-width="0.5" d="M20.87,1.92h170.49"/>
<path fill="none" stroke="#040000" stroke-width="0.5" d="M191.36,93.47H20.87"/>
<path fill="#040000" d="M19.521,0.57L15.96,4.41l2.921,2.49l3.35-3.62L19.521,0.57z"/>
<path fill="#040000" d="M15.96,4.41l-3.239,4.11l3.109,2.25l3.051-3.87L15.96,4.41z"/>
<path fill="#040000" d="M12.721,8.521l-2.9,4.35l3.271,2l2.739-4.1L12.721,8.521z"/>
<path fill="#040000" d="M9.82,12.87l-2.56,4.57l3.42,1.74l2.41-4.31L9.82,12.87z"/>
<path fill="#040000" d="M7.261,17.44l-2.19,4.75l3.54,1.47l2.07-4.48L7.261,17.44z"/>
<path fill="#040000" d="M5.07,22.19l-1.81,4.91l3.649,1.18l1.7-4.62L5.07,22.19z"/>
<path fill="#040000" d="M3.261,27.1l-1.42,5.04l3.729,0.89l1.34-4.75L3.261,27.1z"/>
<path fill="#040000" d="M1.841,32.14l-1.021,5.13l3.78,0.6l0.97-4.84L1.841,32.14z"/>
<path fill="#040000" d="M0.82,37.271l-0.62,5.2l3.82,0.3l0.58-4.9L0.82,37.271z"/>
<path fill="#040000" d="M0.2,42.47L0,47.69h3.83l0.19-4.92L0.2,42.47z"/>
<path fill="#040000" d="M0,47.69l0.2,5.23l3.82-0.301l-0.19-4.93H0z"/>
<path fill="#040000" d="M0.2,52.921l0.62,5.199l3.78-0.6l-0.58-4.9L0.2,52.921z"/>
<path fill="#040000" d="M0.82,58.12l1.021,5.13l3.729-0.89l-0.97-4.84L0.82,58.12z"/>
<path fill="#040000" d="M1.841,63.25l1.42,5.04l3.649-1.18l-1.34-4.75L1.841,63.25z"/>
<path fill="#040000" d="M3.261,68.29l1.81,4.91l3.54-1.47l-1.7-4.62L3.261,68.29z"/>
<path fill="#040000" d="M5.07,73.2l2.19,4.75l3.42-1.74L8.61,71.73L5.07,73.2z"/>
<path fill="#040000" d="M7.261,77.95l2.56,4.57l3.271-2.01l-2.41-4.301L7.261,77.95z"/>
<path fill="#040000" d="M9.82,82.521l2.9,4.35l3.109-2.25l-2.739-4.109L9.82,82.521z"/>
<path fill="#040000" d="M12.721,86.87l3.239,4.11l2.921-2.49l-3.051-3.87L12.721,86.87z"/>
<path fill="#040000" d="M15.96,90.98l3.561,3.84l2.71-2.71l-3.35-3.62L15.96,90.98z"/>
<path fill="#040000" d="M192.721,0.57l3.55,3.84l-2.91,2.49l-3.35-3.62L192.721,0.57z"/>
<path fill="#040000" d="M196.271,4.41l3.24,4.11l-3.101,2.25l-3.05-3.87L196.271,4.41z"/>
<path fill="#040000" d="M199.511,8.521l2.91,4.35l-3.271,2l-2.74-4.1L199.511,8.521z"/>
<path fill="#040000" d="M202.421,12.87l2.56,4.57l-3.42,1.74l-2.41-4.31L202.421,12.87z"/>
<path fill="#040000" d="M204.98,17.44l2.19,4.75l-3.54,1.47l-2.07-4.48L204.98,17.44z"/>
<path fill="#040000" d="M207.171,22.19l1.81,4.91l-3.65,1.18l-1.699-4.62L207.171,22.19z"/>
<path fill="#040000" d="M208.98,27.1l1.42,5.04l-3.729,0.89l-1.341-4.75L208.98,27.1z"/>
<path fill="#040000" d="M210.4,32.14l1.021,5.13l-3.79,0.6l-0.96-4.84L210.4,32.14z"/>
<path fill="#040000" d="M211.421,37.271l0.619,5.2l-3.83,0.3l-0.579-4.9L211.421,37.271z"/>
<path fill="#040000" d="M212.04,42.47l0.2,5.22h-3.83l-0.2-4.92L212.04,42.47z"/>
<path fill="#040000" d="M212.24,47.69l-0.2,5.23l-3.83-0.301l0.2-4.93H212.24z"/>
<path fill="#040000" d="M212.04,52.921l-0.619,5.199l-3.79-0.6l0.579-4.9L212.04,52.921z"/>
<path fill="#040000" d="M211.421,58.12l-1.021,5.13l-3.729-0.89l0.96-4.84L211.421,58.12z"/>
<path fill="#040000" d="M210.4,63.25l-1.42,5.04l-3.65-1.18l1.341-4.75L210.4,63.25z"/>
<path fill="#040000" d="M208.98,68.29l-1.81,4.91l-3.54-1.47l1.699-4.62L208.98,68.29z"/>
<path fill="#040000" d="M207.171,73.2l-2.19,4.75l-3.42-1.74l2.07-4.479L207.171,73.2z"/>
<path fill="#040000" d="M204.98,77.95l-2.56,4.57l-3.271-2.01l2.41-4.301L204.98,77.95z"/>
<path fill="#040000" d="M202.421,82.521l-2.91,4.35l-3.101-2.25l2.74-4.109L202.421,82.521z"/>
<path fill="#040000" d="M199.511,86.87l-3.24,4.11l-2.91-2.49l3.05-3.87L199.511,86.87z"/>
<path fill="#040000" d="M196.271,90.98l-3.55,3.84l-2.71-2.71l3.35-3.62L196.271,90.98z"/>
<path fill="#040000" d="M20.87,3.84V0h170.49v3.84H20.87z"/>
<path fill="#040000" d="M20.87,95.38v-3.83h170.49v3.83H20.87z"/>
<path fill="none" stroke="#040000" stroke-width="0.5" d="M41.301,1.92V93.47"/>
<path fill="none" stroke="#040000" stroke-width="0.5" d="M170.94,1.92V93.47"/>
<path fill="none" stroke="#040000" stroke-width="0.5" d="M41.301,47.69h129.64"/>
<path fill="none" stroke="#040000" stroke-width="0.5" d="M41.301,62.95h129.64"/>
<path fill="none" stroke="#040000" stroke-width="0.5" d="M41.301,78.21h129.64"/>
<path fill="none" stroke="#040000" stroke-width="0.5" d="M41.301,55.32h129.64"/>
<path fill="none" stroke="#040000" stroke-width="0.5" d="M41.301,85.841h129.64"/>
<path fill="none" stroke="#040000" stroke-width="0.5" d="M41.301,32.44h129.64"/>
<path fill="none" stroke="#040000" stroke-width="0.5" d="M41.301,17.18h129.64"/>
<path fill="none" stroke="#040000" stroke-width="0.5" d="M41.301,40.07h129.64"/>
<path fill="none" stroke="#040000" stroke-width="0.5" d="M41.301,9.55h129.64"/>
<path fill="#040000" d="M39.381,1.92h3.84V93.47h-3.84V1.92z"/>
<path fill="#040000" d="M169.021,1.92h3.84V93.47h-3.84V1.92z"/>
<path fill="#040000" d="M41.301,49.61v-3.83h129.64v3.83H41.301z"/>
<path fill="#040000" d="M41.301,41.98v-3.83h129.64v3.83H41.301z"/>
<path fill="#040000" d="M41.301,57.24v-3.83h129.64v3.83H41.301z"/>
<path fill="#040000" d="M41.301,34.36v-3.84h129.64v3.84H41.301z"/>
<path fill="#040000" d="M41.301,64.87v-3.84h129.64v3.84H41.301z"/>
<path fill="#040000" d="M41.301,80.13v-3.84h129.64v3.84H41.301z"/>
<path fill="#040000" d="M41.301,87.761v-3.84h129.64v3.84H41.301z"/>
<path fill="#040000" d="M41.301,19.1v-3.84h129.64v3.84H41.301z"/>
<path fill="#040000" d="M41.301,11.47V7.63h129.64v3.84H41.301z"/>
</svg>
